<svg width="698" height="717" viewBox="0 0 698 717" fill="none" xmlns="http://www.w3.org/2000/svg">
<rect width="698" height="717" fill="url(#paint0_linear_132_133)"/>
<path d="M205.216 240.796H198.106C198.106 243.063 197.874 245.329 197.41 247.596C196.998 249.812 196.303 252.027 195.324 254.242L203.593 257.952L201.12 263.13L192.851 259.42C191.357 261.842 189.631 264.057 187.673 266.066C185.715 268.076 183.551 269.853 181.181 271.399L185.123 280.827L178.94 284.459L174.613 274.799C171.264 276.139 167.967 277.014 164.721 277.427C161.475 277.839 158.332 277.787 155.293 277.272L153.129 288.4L146.251 286.546L149.033 276.499C146.766 275.984 144.576 275.391 142.464 274.722C140.403 274 138.445 273.228 136.591 272.403L131.258 281.213L125.694 276.886L130.408 268.848C128.09 267.251 125.926 265.422 123.917 263.362C121.907 261.301 120.001 258.982 118.198 256.406L108.924 261.275L105.756 256.02L114.952 250.688C112.994 246.772 111.5 242.65 110.47 238.323C109.44 233.943 108.873 229.307 108.77 224.412L98.7234 226.035L96.9459 219.157L108.924 217.612C109.285 213.284 109.929 209.085 110.856 205.015C111.835 200.893 113.123 196.875 114.72 192.959L105.215 186.545L109.543 180.517L117.812 186.39C119.357 183.814 120.903 181.47 122.448 179.358C123.994 177.194 125.565 175.21 127.163 173.407L120.207 163.979L125.308 160.038L132.031 168.461C134.556 166.297 137.106 164.391 139.682 162.743C142.258 161.094 144.834 159.754 147.41 158.724L145.246 149.528L152.588 148.137L153.747 156.792C155.396 156.431 157.07 156.148 158.77 155.942C160.522 155.736 162.274 155.633 164.025 155.633C165.828 155.633 167.58 155.762 169.28 156.019C171.032 156.277 172.758 156.663 174.458 157.178L176.622 148.137L182.727 149.682L179.713 159.806C181.774 161.094 183.706 162.665 185.509 164.52C187.312 166.323 188.961 168.41 190.455 170.78L197.333 166.066L201.274 172.248L193.624 176.73C194.396 178.534 195.066 180.182 195.633 181.676C196.2 183.17 196.637 184.484 196.947 185.618L189.682 188.631C186.127 182.655 182.006 178.173 177.317 175.185C172.629 172.145 167.323 170.625 161.398 170.625C156.349 170.625 151.686 171.707 147.41 173.871C143.134 175.983 139.296 179.203 135.895 183.531C132.701 187.55 130.331 191.877 128.785 196.514C127.24 201.151 126.467 206.045 126.467 211.197C126.467 216.916 127.188 222.145 128.631 226.885C130.073 231.625 132.263 235.85 135.2 239.559C138.445 243.681 142.232 246.772 146.56 248.833C150.939 250.842 155.885 251.847 161.398 251.847C168.817 251.847 174.947 249.631 179.79 245.201C184.633 240.77 187.055 234.897 187.055 227.581L194.01 224.799C194.886 226.344 195.607 227.967 196.174 229.667C196.741 231.367 197.204 233.196 197.565 235.154H205.216V240.796ZM285.556 277.04L285.479 281.213C277.493 284.82 269.585 287.499 261.754 289.25C253.974 291.054 246.272 291.955 238.647 291.955C234.422 291.955 230.558 291.543 227.055 290.719C223.552 289.894 220.409 288.684 217.627 287.087C214.33 285.18 211.831 282.733 210.131 279.745C208.482 276.757 207.658 273.279 207.658 269.312C207.658 262.305 211.161 256.046 218.168 250.533C225.226 245.02 235.736 240.255 249.698 236.236C248.565 232.939 246.633 230.44 243.902 228.74C241.223 227.04 237.797 226.19 233.624 226.19C229.142 226.19 225.071 227.117 221.414 228.972C217.756 230.775 214.51 233.454 211.676 237.009L207.58 233.068C211.908 226.422 217.266 221.424 223.655 218.075C230.043 214.675 237.488 212.975 245.989 212.975C252.892 212.975 258.946 214.907 264.15 218.771C269.405 222.583 273.835 228.328 277.442 236.004C280.275 242.032 282.362 248.472 283.701 255.324C285.092 262.125 285.711 269.364 285.556 277.04ZM273.578 250.147C273.578 248.292 273.114 246.901 272.187 245.973C271.311 245.046 269.946 244.582 268.091 244.582C266.236 244.582 264.819 245.046 263.84 245.973C262.913 246.901 262.449 248.292 262.449 250.147C262.449 252.001 262.913 253.392 263.84 254.32C264.819 255.196 266.236 255.633 268.091 255.633C269.946 255.633 271.311 255.196 272.187 254.32C273.114 253.392 273.578 252.001 273.578 250.147ZM255.185 271.321C255.185 266.633 254.953 261.996 254.49 257.411C254.077 252.826 253.408 248.292 252.48 243.81C247.637 245.201 243.258 246.695 239.343 248.292C235.479 249.837 232.104 251.486 229.219 253.238L237.101 285.155C241.223 285.155 244.778 284.923 247.766 284.459C250.754 283.995 253.15 283.248 254.953 282.218C255.056 280.363 255.108 278.534 255.108 276.731C255.159 274.928 255.185 273.125 255.185 271.321ZM276.746 271.012C276.746 269.055 276.051 267.38 274.66 265.989C273.32 264.598 271.646 263.902 269.636 263.902C267.679 263.902 265.979 264.572 264.536 265.912C263.145 267.251 262.449 268.951 262.449 271.012C262.449 273.022 263.145 274.696 264.536 276.035C265.979 277.375 267.679 278.045 269.636 278.045C271.646 278.045 273.32 277.375 274.66 276.035C276.051 274.644 276.746 272.97 276.746 271.012ZM346.268 225.649C346.268 229.925 345.34 233.119 343.485 235.232C341.631 237.292 338.849 238.323 335.139 238.323C331.79 238.323 329.266 237.704 327.566 236.468C325.917 235.18 325.093 233.274 325.093 230.749C325.093 229.513 325.428 228.405 326.097 227.426C326.767 226.396 327.772 225.52 329.111 224.799L331.352 226.422C330.992 226.834 330.708 227.246 330.502 227.658C330.296 228.019 330.193 228.379 330.193 228.74C330.193 229.77 330.502 230.543 331.121 231.058C331.739 231.522 332.64 231.754 333.825 231.754C335.474 231.754 336.685 231.367 337.458 230.595C338.23 229.77 338.617 228.508 338.617 226.808C338.617 225.468 338.256 224.258 337.535 223.176C336.865 222.094 335.835 221.166 334.444 220.394C333.362 219.775 332.151 219.312 330.812 219.003C329.524 218.694 328.107 218.539 326.561 218.539C324.603 218.539 322.826 218.797 321.229 219.312C319.683 219.775 318.215 220.497 316.824 221.476C315.33 222.558 314.222 223.846 313.501 225.34C312.779 226.834 312.419 228.508 312.419 230.363C312.419 232.166 313.114 233.943 314.505 235.695C315.896 237.395 317.931 239.096 320.611 240.796C325.453 243.887 329.137 246.231 331.662 247.828C334.238 249.425 335.603 250.301 335.757 250.456C338.54 252.774 340.6 255.299 341.94 258.029C343.279 260.708 343.949 263.671 343.949 266.916C343.949 271.244 343.125 275.16 341.476 278.663C339.879 282.166 337.406 285.206 334.057 287.782C331.018 290.152 327.591 291.955 323.779 293.192C320.018 294.428 315.896 295.046 311.414 295.046C308.478 295.046 305.67 294.686 302.991 293.965C300.312 293.295 297.71 292.264 295.185 290.873C292.609 289.482 290.342 287.782 288.385 285.773C286.478 283.764 284.881 281.471 283.593 278.895L289.312 273.563C291.682 277.993 294.593 281.291 298.045 283.454C301.497 285.618 305.464 286.7 309.946 286.7C314.016 286.7 317.339 285.515 319.915 283.145C322.543 280.724 323.856 277.53 323.856 273.563C323.856 270.987 323.264 268.488 322.079 266.066C320.945 263.593 319.194 261.198 316.824 258.879C314.66 256.973 312.47 255.067 310.255 253.161C308.04 251.254 305.824 249.348 303.609 247.442C301.29 245.072 299.539 242.599 298.354 240.023C297.169 237.447 296.576 234.742 296.576 231.908C296.576 228.457 297.323 225.365 298.817 222.635C300.312 219.904 302.501 217.509 305.386 215.448C307.911 213.645 310.719 212.331 313.81 211.506C316.953 210.682 320.353 210.27 324.011 210.27C327.051 210.27 329.807 210.553 332.28 211.12C334.753 211.635 336.942 212.408 338.849 213.438C341.373 214.778 343.228 216.478 344.413 218.539C345.649 220.6 346.268 222.97 346.268 225.649ZM304.845 260.734C304.845 263.362 303.918 265.603 302.063 267.457C300.209 269.261 297.993 270.162 295.417 270.162C292.841 270.162 290.626 269.235 288.771 267.38C286.916 265.525 285.989 263.31 285.989 260.734C285.989 258.158 286.916 255.943 288.771 254.088C290.626 252.233 292.841 251.306 295.417 251.306C297.993 251.306 300.209 252.233 302.063 254.088C303.918 255.943 304.845 258.158 304.845 260.734ZM428.308 277.04L428.231 281.213C420.245 284.82 412.337 287.499 404.506 289.25C396.726 291.054 389.024 291.955 381.399 291.955C377.175 291.955 373.311 291.543 369.807 290.719C366.304 289.894 363.161 288.684 360.379 287.087C357.082 285.18 354.583 282.733 352.883 279.745C351.234 276.757 350.41 273.279 350.41 269.312C350.41 262.305 353.913 256.046 360.92 250.533C367.978 245.02 378.488 240.255 392.45 236.236C391.317 232.939 389.385 230.44 386.654 228.74C383.975 227.04 380.549 226.19 376.376 226.19C371.894 226.19 367.824 227.117 364.166 228.972C360.508 230.775 357.262 233.454 354.428 237.009L350.333 233.068C354.66 226.422 360.018 221.424 366.407 218.075C372.795 214.675 380.24 212.975 388.741 212.975C395.645 212.975 401.698 214.907 406.902 218.771C412.157 222.583 416.587 228.328 420.194 236.004C423.027 242.032 425.114 248.472 426.454 255.324C427.845 262.125 428.463 269.364 428.308 277.04ZM416.33 250.147C416.33 248.292 415.866 246.901 414.939 245.973C414.063 245.046 412.698 244.582 410.843 244.582C408.988 244.582 407.571 245.046 406.593 245.973C405.665 246.901 405.201 248.292 405.201 250.147C405.201 252.001 405.665 253.392 406.593 254.32C407.571 255.196 408.988 255.633 410.843 255.633C412.698 255.633 414.063 255.196 414.939 254.32C415.866 253.392 416.33 252.001 416.33 250.147ZM397.937 271.321C397.937 266.633 397.705 261.996 397.242 257.411C396.829 252.826 396.16 248.292 395.232 243.81C390.389 245.201 386.01 246.695 382.095 248.292C378.231 249.837 374.856 251.486 371.971 253.238L379.854 285.155C383.975 285.155 387.53 284.923 390.518 284.459C393.506 283.995 395.902 283.248 397.705 282.218C397.808 280.363 397.86 278.534 397.86 276.731C397.911 274.928 397.937 273.125 397.937 271.321ZM419.498 271.012C419.498 269.055 418.803 267.38 417.412 265.989C416.072 264.598 414.398 263.902 412.389 263.902C410.431 263.902 408.731 264.572 407.288 265.912C405.897 267.251 405.201 268.951 405.201 271.012C405.201 273.022 405.897 274.696 407.288 276.035C408.731 277.375 410.431 278.045 412.389 278.045C414.398 278.045 416.072 277.375 417.412 276.035C418.803 274.644 419.498 272.97 419.498 271.012ZM215.571 415.856C215.571 417.453 215.545 419.076 215.494 420.724C215.442 422.321 215.365 423.97 215.262 425.67L211.321 505.114L126.699 419.101L123.221 492.827L92 493.059L101.274 468.02L116.266 467.247L122.758 359.132L197.178 450.864C197.591 445.918 198.029 440.998 198.492 436.103C198.956 431.209 199.42 426.289 199.883 421.343C200.45 415.469 200.862 410.06 201.12 405.114C201.377 400.168 201.506 395.686 201.506 391.667C201.506 383.269 200.527 375.747 198.569 369.101C196.612 362.455 193.649 356.711 189.682 351.868L194.783 348.699C201.686 356.273 206.864 365.649 210.316 376.829C213.819 388.009 215.571 401.018 215.571 415.856ZM150.347 414.001C150.347 412.146 149.883 410.755 148.956 409.828C148.08 408.9 146.714 408.437 144.86 408.437C143.057 408.437 141.691 408.9 140.764 409.828C139.836 410.755 139.373 412.146 139.373 414.001C139.373 415.856 139.836 417.247 140.764 418.174C141.691 419.05 143.057 419.488 144.86 419.488C146.714 419.488 148.08 419.05 148.956 418.174C149.883 417.247 150.347 415.856 150.347 414.001ZM171.831 437.649C171.831 435.691 171.135 433.991 169.744 432.548C168.353 431.106 166.704 430.384 164.798 430.384C162.737 430.384 160.986 431.106 159.543 432.548C158.152 433.939 157.456 435.639 157.456 437.649C157.456 439.658 158.152 441.332 159.543 442.672C160.986 444.011 162.737 444.681 164.798 444.681C166.704 444.681 168.353 444.011 169.744 442.672C171.135 441.281 171.831 439.607 171.831 437.649ZM191.151 461.065C191.151 459.261 190.713 457.896 189.837 456.969C188.961 456.041 187.57 455.578 185.664 455.578C183.809 455.578 182.418 456.041 181.491 456.969C180.563 457.896 180.1 459.261 180.1 461.065C180.1 462.919 180.563 464.31 181.491 465.238C182.418 466.165 183.809 466.629 185.664 466.629C187.57 466.629 188.961 466.165 189.837 465.238C190.713 464.31 191.151 462.919 191.151 461.065ZM310.595 491.127C309.307 492.415 308.148 493.574 307.117 494.604C306.087 495.583 305.185 496.382 304.413 497L310.209 505.655L304.799 508.824L298.926 501.56C296.865 502.796 294.675 503.826 292.357 504.651C290.038 505.527 287.565 506.119 284.938 506.428L284.783 515.547L277.828 515.084L278.446 506.66C276.076 506.66 273.552 506.402 270.873 505.887C268.194 505.424 265.386 504.702 262.449 503.723L258.122 512.997L251.166 509.21L255.881 500.555C253.356 499.164 251.038 497.567 248.925 495.764C246.865 493.909 245.036 491.822 243.438 489.504L235.169 494.759L231.692 489.272L240.734 484.558C239.549 482.085 238.621 479.56 237.952 476.984C237.282 474.357 236.844 471.678 236.638 468.947L228.369 471.034L225.973 464.233L236.638 461.837C236.895 458.952 237.333 456.351 237.952 454.032C238.57 451.714 239.368 449.653 240.347 447.85L232.851 443.367L236.406 437.494L243.748 442.595C245.036 440.998 246.427 439.555 247.921 438.267C249.466 436.979 251.089 435.846 252.789 434.867L246.452 425.67L253.408 422.27L258.508 432.085C260.157 431.569 261.651 431.157 262.99 430.848C264.33 430.539 265.515 430.307 266.545 430.153L268.632 420.029L274.119 421.729L272.728 429.766C274.788 429.766 276.746 430.024 278.601 430.539C280.456 431.054 282.233 431.827 283.933 432.857L291.584 425.284L295.912 428.916L288.647 436.799C289.781 437.881 290.837 439.194 291.816 440.74C292.795 442.234 293.671 443.908 294.443 445.763L303.485 442.749L305.031 448.468L296.298 451.482C296.71 452.615 297.045 453.852 297.303 455.191C297.612 456.531 297.895 457.973 298.153 459.519L262.218 465.779V466.629C262.218 470.39 262.604 473.945 263.377 477.294C264.201 480.591 265.438 483.734 267.086 486.722C269.044 490.277 271.388 492.956 274.119 494.759C276.849 496.511 279.915 497.386 283.315 497.386C286.818 497.386 290.502 496.459 294.366 494.604C298.23 492.75 302.326 489.916 306.654 486.103L310.595 491.127ZM278.987 453.182C278.781 450.915 277.931 449.215 276.437 448.082C274.995 446.948 272.908 446.381 270.177 446.381C266.829 446.381 263.712 447.386 260.826 449.395C257.941 451.405 255.984 453.981 254.953 457.123L278.987 453.182ZM428.03 496.614L396.5 500.168L397.118 461.297C397.221 455.784 396.654 451.636 395.418 448.854C394.233 446.072 392.43 444.681 390.008 444.681C388.514 444.681 386.994 445.609 385.449 447.463C383.903 449.267 382.306 451.997 380.657 455.655C379.524 458.128 378.545 460.627 377.721 463.151C376.948 465.676 376.252 468.226 375.634 470.802C375.376 468.638 375.093 466.474 374.784 464.31C374.526 462.095 374.269 459.905 374.011 457.742C373.547 455.011 372.955 452.641 372.234 450.632C371.564 448.571 370.74 446.845 369.761 445.454C368.473 443.651 366.901 442.286 365.047 441.358C363.192 440.431 361.028 439.967 358.555 439.967C355 439.967 351.806 441.332 348.972 444.063C346.139 446.794 343.692 450.889 341.631 456.351L342.404 497.386L314.505 495.454L323.934 420.647L340.085 423.197L340.858 439.04C343.949 435.124 347.195 432.188 350.595 430.23C354.047 428.221 357.654 427.216 361.414 427.216C364.969 427.216 368.138 427.911 370.92 429.302C373.754 430.694 376.149 432.806 378.107 435.639C380.992 432.497 383.903 430.153 386.84 428.607C389.776 427.01 392.713 426.211 395.65 426.211C398.947 426.211 401.987 427.113 404.769 428.916C407.551 430.668 410.101 433.295 412.419 436.799C414.171 439.426 415.665 442.363 416.902 445.609C418.19 448.854 419.272 452.384 420.148 456.196L410.333 458.978L411.492 465.006L421.539 462.919L422.311 469.566L412.497 471.188L413.888 477.834L424.243 476.134L425.48 482.858L414.429 483.399L415.433 490.431L426.484 489.272L428.03 496.614ZM385.294 485.176C385.294 488.01 384.315 490.405 382.357 492.363C380.451 494.321 378.056 495.3 375.17 495.3C372.337 495.3 369.915 494.321 367.906 492.363C365.948 490.405 364.969 488.01 364.969 485.176C364.969 482.343 365.948 479.973 367.906 478.066C369.915 476.109 372.337 475.13 375.17 475.13C378.056 475.13 380.451 476.109 382.357 478.066C384.315 479.973 385.294 482.343 385.294 485.176ZM519.344 455.578L509.684 458.205C509.839 459.184 509.968 460.24 510.071 461.374C510.174 462.456 510.225 463.615 510.225 464.851C510.225 466.706 510.097 468.535 509.839 470.338C509.581 472.142 509.195 473.945 508.68 475.748L516.408 479.303L512.467 486.103L506.361 481.776C504.404 485.949 501.879 489.478 498.788 492.363C495.697 495.248 492.039 497.541 487.814 499.241L489.978 508.437L482.868 510.215L481.477 501.173C479.932 501.431 478.566 501.611 477.381 501.714C476.248 501.869 475.269 501.946 474.445 501.946C471.353 501.946 468.314 501.56 465.326 500.787C462.389 500.014 459.555 498.803 456.825 497.155L451.106 506.042L445.001 502.487L451.492 493.213C449.432 491.513 447.603 489.607 446.005 487.495C444.46 485.382 443.146 483.09 442.064 480.617L432.404 483.631L431.013 477.062L439.823 475.13C439.359 473.223 439.024 471.394 438.818 469.643C438.612 467.891 438.509 466.294 438.509 464.851C438.509 463.254 438.587 461.709 438.741 460.215C438.947 458.669 439.256 457.201 439.668 455.81L431.013 453.028L432.791 446.381L441.678 450.091C442.914 446.948 444.511 444.089 446.469 441.513C448.478 438.937 450.823 436.67 453.502 434.712L448.324 426.598L454.274 422.502L459.375 431.157C461.745 430.024 464.166 429.174 466.639 428.607C469.164 428.04 471.766 427.757 474.445 427.757C477.124 427.757 479.648 428.04 482.018 428.607C484.44 429.122 486.758 429.895 488.973 430.925L493.069 423.584L499.097 426.984L494.924 434.48C497.964 436.696 500.565 439.246 502.729 442.131C504.893 445.016 506.696 448.262 508.139 451.868L517.567 447.695L519.344 455.578ZM488.587 464.851C488.587 461.606 488.278 458.617 487.66 455.887C487.041 453.156 486.037 450.658 484.646 448.391C482.997 445.66 481.039 443.625 478.772 442.286C476.505 440.895 473.852 440.199 470.812 440.199C467.876 440.199 465.248 440.895 462.93 442.286C460.611 443.625 458.654 445.686 457.057 448.468C455.717 450.735 454.712 453.259 454.043 456.041C453.424 458.772 453.115 461.709 453.115 464.851C453.115 468.2 453.424 471.266 454.043 474.048C454.712 476.778 455.691 479.251 456.979 481.467C458.576 484.249 460.534 486.31 462.853 487.649C465.171 488.989 467.824 489.658 470.812 489.658C473.904 489.658 476.608 488.989 478.927 487.649C481.245 486.31 483.177 484.249 484.723 481.467C485.959 479.251 486.913 476.778 487.582 474.048C488.252 471.266 488.587 468.2 488.587 464.851ZM579.128 437.649C579.128 441.925 578.201 445.119 576.346 447.232C574.492 449.292 571.71 450.323 568 450.323C564.651 450.323 562.127 449.704 560.427 448.468C558.778 447.18 557.954 445.274 557.954 442.749C557.954 441.513 558.289 440.405 558.958 439.426C559.628 438.396 560.633 437.52 561.972 436.799L564.213 438.422C563.853 438.834 563.569 439.246 563.363 439.658C563.157 440.019 563.054 440.379 563.054 440.74C563.054 441.77 563.363 442.543 563.982 443.058C564.6 443.522 565.501 443.754 566.686 443.754C568.335 443.754 569.546 443.367 570.319 442.595C571.091 441.77 571.478 440.508 571.478 438.808C571.478 437.468 571.117 436.258 570.396 435.176C569.726 434.094 568.696 433.166 567.305 432.394C566.223 431.775 565.012 431.312 563.672 431.003C562.384 430.694 560.968 430.539 559.422 430.539C557.464 430.539 555.687 430.797 554.09 431.312C552.544 431.775 551.076 432.497 549.685 433.476C548.191 434.558 547.083 435.846 546.362 437.34C545.64 438.834 545.28 440.508 545.28 442.363C545.28 444.166 545.975 445.943 547.366 447.695C548.757 449.395 550.792 451.096 553.471 452.796C558.314 455.887 561.998 458.231 564.523 459.828C567.099 461.425 568.464 462.301 568.618 462.456C571.4 464.774 573.461 467.299 574.801 470.029C576.14 472.708 576.81 475.671 576.81 478.916C576.81 483.244 575.986 487.16 574.337 490.663C572.74 494.166 570.267 497.206 566.918 499.782C563.879 502.152 560.452 503.955 556.64 505.192C552.879 506.428 548.757 507.046 544.275 507.046C541.338 507.046 538.531 506.686 535.852 505.965C533.172 505.295 530.571 504.264 528.046 502.873C525.47 501.482 523.203 499.782 521.246 497.773C519.339 495.764 517.742 493.471 516.454 490.895L522.173 485.563C524.543 489.993 527.454 493.291 530.906 495.454C534.357 497.618 538.325 498.7 542.807 498.7C546.877 498.7 550.2 497.515 552.776 495.145C555.403 492.724 556.717 489.53 556.717 485.563C556.717 482.987 556.125 480.488 554.94 478.066C553.806 475.593 552.055 473.198 549.685 470.879C547.521 468.973 545.331 467.067 543.116 465.161C540.901 463.254 538.685 461.348 536.47 459.442C534.151 457.072 532.4 454.599 531.215 452.023C530.03 449.447 529.437 446.742 529.437 443.908C529.437 440.457 530.184 437.365 531.678 434.635C533.172 431.904 535.362 429.509 538.247 427.448C540.772 425.645 543.58 424.331 546.671 423.506C549.814 422.682 553.214 422.27 556.872 422.27C559.911 422.27 562.668 422.553 565.141 423.12C567.614 423.635 569.803 424.408 571.71 425.438C574.234 426.778 576.089 428.478 577.274 430.539C578.51 432.6 579.128 434.97 579.128 437.649ZM537.706 472.734C537.706 475.362 536.779 477.603 534.924 479.457C533.069 481.261 530.854 482.162 528.278 482.162C525.702 482.162 523.487 481.235 521.632 479.38C519.777 477.525 518.85 475.31 518.85 472.734C518.85 470.158 519.777 467.943 521.632 466.088C523.487 464.233 525.702 463.306 528.278 463.306C530.854 463.306 533.069 464.233 534.924 466.088C536.779 467.943 537.706 470.158 537.706 472.734Z" fill="black"/>
<path d="M103.568 585.288C104.304 585.672 104.88 586.2 105.296 586.872C105.712 587.544 105.92 588.32 105.92 589.2C105.92 590.576 105.432 591.72 104.456 592.632C103.48 593.544 102.288 594 100.88 594H93.68V577.2H100.352C101.728 577.2 102.888 577.648 103.832 578.544C104.792 579.424 105.272 580.528 105.272 581.856C105.272 583.312 104.704 584.456 103.568 585.288ZM100.352 579.792H96.44V584.208H100.352C100.96 584.208 101.472 584 101.888 583.584C102.304 583.152 102.512 582.624 102.512 582C102.512 581.376 102.304 580.856 101.888 580.44C101.472 580.008 100.96 579.792 100.352 579.792ZM100.88 591.408C101.52 591.408 102.056 591.184 102.488 590.736C102.936 590.272 103.16 589.712 103.16 589.056C103.16 588.4 102.936 587.848 102.488 587.4C102.056 586.936 101.52 586.704 100.88 586.704H96.44V591.408H100.88ZM109.888 591.36H117.328V594H107.128V577.2H117.208V579.84H109.888V584.208H116.608V586.824H109.888V591.36ZM129.833 594L128.657 590.616H121.505L120.329 594H117.329L123.425 577.2H126.737L132.809 594H129.833ZM122.417 588.024H127.745L125.081 580.44L122.417 588.024ZM143.723 592.728C142.539 593.784 141.011 594.312 139.139 594.312C137.267 594.312 135.739 593.784 134.555 592.728C133.371 591.656 132.779 590.224 132.779 588.432V577.2H135.539V588.264C135.539 589.288 135.835 590.104 136.427 590.712C137.035 591.32 137.939 591.624 139.139 591.624C140.339 591.624 141.235 591.32 141.827 590.712C142.435 590.104 142.739 589.288 142.739 588.264V577.2H145.499V588.432C145.499 590.224 144.907 591.656 143.723 592.728ZM158.394 577.2V579.84H153.666V594H150.906V579.84H146.154V577.2H158.394ZM159.235 577.2H161.995V594H159.235V577.2ZM173.992 579.84H166.912V584.544H173.752V587.184H166.912V594H164.152V577.2H173.992V579.84ZM186.15 592.728C184.966 593.784 183.438 594.312 181.566 594.312C179.694 594.312 178.166 593.784 176.982 592.728C175.798 591.656 175.206 590.224 175.206 588.432V577.2H177.966V588.264C177.966 589.288 178.262 590.104 178.854 590.712C179.462 591.32 180.366 591.624 181.566 591.624C182.766 591.624 183.662 591.32 184.254 590.712C184.862 590.104 185.166 589.288 185.166 588.264V577.2H187.926V588.432C187.926 590.224 187.334 591.656 186.15 592.728ZM192.66 591.36H199.5V594H189.9V577.2H192.66V591.36ZM214.725 594L211.173 587.88H207.909V594H205.149V577.2H211.869C213.373 577.2 214.645 577.728 215.685 578.784C216.741 579.824 217.269 581.096 217.269 582.6C217.269 583.672 216.957 584.656 216.333 585.552C215.725 586.432 214.925 587.072 213.933 587.472L217.749 594H214.725ZM207.909 579.792V585.408H211.869C212.605 585.408 213.229 585.136 213.741 584.592C214.253 584.048 214.509 583.384 214.509 582.6C214.509 581.816 214.253 581.152 213.741 580.608C213.229 580.064 212.605 579.792 211.869 579.792H207.909ZM232.59 591.792C230.91 593.472 228.854 594.312 226.422 594.312C223.99 594.312 221.926 593.472 220.23 591.792C218.55 590.096 217.71 588.032 217.71 585.6C217.71 583.168 218.55 581.112 220.23 579.432C221.926 577.736 223.99 576.888 226.422 576.888C228.854 576.888 230.91 577.736 232.59 579.432C234.286 581.112 235.134 583.168 235.134 585.6C235.134 588.032 234.286 590.096 232.59 591.792ZM222.174 589.92C223.326 591.056 224.742 591.624 226.422 591.624C228.102 591.624 229.51 591.056 230.646 589.92C231.798 588.768 232.374 587.328 232.374 585.6C232.374 583.872 231.798 582.44 230.646 581.304C229.51 580.152 228.102 579.576 226.422 579.576C224.742 579.576 223.326 580.152 222.174 581.304C221.038 582.44 220.47 583.872 220.47 585.6C220.47 587.328 221.038 588.768 222.174 589.92ZM250.492 591.792C248.812 593.472 246.756 594.312 244.324 594.312C241.892 594.312 239.828 593.472 238.132 591.792C236.452 590.096 235.612 588.032 235.612 585.6C235.612 583.168 236.452 581.112 238.132 579.432C239.828 577.736 241.892 576.888 244.324 576.888C246.756 576.888 248.812 577.736 250.492 579.432C252.188 581.112 253.036 583.168 253.036 585.6C253.036 588.032 252.188 590.096 250.492 591.792ZM240.076 589.92C241.228 591.056 242.644 591.624 244.324 591.624C246.004 591.624 247.412 591.056 248.548 589.92C249.7 588.768 250.276 587.328 250.276 585.6C250.276 583.872 249.7 582.44 248.548 581.304C247.412 580.152 246.004 579.576 244.324 579.576C242.644 579.576 241.228 580.152 240.076 581.304C238.94 582.44 238.372 583.872 238.372 585.6C238.372 587.328 238.94 588.768 240.076 589.92ZM270.433 577.2V594H267.673V582.024L262.561 590.472H262.225L257.113 582V594H254.353V577.2H257.329L262.393 585.6L267.481 577.2H270.433ZM277.941 594.312C276.325 594.312 274.949 593.944 273.813 593.208C272.693 592.472 271.909 591.464 271.461 590.184L273.837 588.792C274.509 590.68 275.901 591.624 278.013 591.624C279.053 591.624 279.829 591.424 280.341 591.024C280.869 590.608 281.133 590.072 281.133 589.416C281.133 588.728 280.853 588.208 280.293 587.856C279.733 587.488 278.741 587.088 277.317 586.656C276.517 586.416 275.869 586.192 275.373 585.984C274.877 585.776 274.349 585.488 273.789 585.12C273.245 584.736 272.837 584.264 272.565 583.704C272.293 583.144 272.157 582.488 272.157 581.736C272.157 580.248 272.685 579.072 273.741 578.208C274.797 577.328 276.069 576.888 277.557 576.888C278.901 576.888 280.077 577.216 281.085 577.872C282.093 578.528 282.869 579.432 283.413 580.584L281.085 581.928C280.381 580.36 279.205 579.576 277.557 579.576C276.757 579.576 276.117 579.768 275.637 580.152C275.157 580.52 274.917 581.024 274.917 581.664C274.917 582.288 275.157 582.784 275.637 583.152C276.133 583.504 277.021 583.88 278.301 584.28C278.941 584.488 279.405 584.648 279.693 584.76C279.997 584.856 280.413 585.016 280.941 585.24C281.485 585.464 281.893 585.688 282.165 585.912C282.437 586.136 282.725 586.416 283.029 586.752C283.349 587.088 283.573 587.472 283.701 587.904C283.829 588.336 283.893 588.824 283.893 589.368C283.893 590.888 283.341 592.096 282.237 592.992C281.149 593.872 279.717 594.312 277.941 594.312ZM299.734 579.84H292.654V584.544H299.494V587.184H292.654V594H289.894V577.2H299.734V579.84ZM315.156 591.792C313.476 593.472 311.42 594.312 308.988 594.312C306.556 594.312 304.492 593.472 302.796 591.792C301.116 590.096 300.276 588.032 300.276 585.6C300.276 583.168 301.116 581.112 302.796 579.432C304.492 577.736 306.556 576.888 308.988 576.888C311.42 576.888 313.476 577.736 315.156 579.432C316.852 581.112 317.7 583.168 317.7 585.6C317.7 588.032 316.852 590.096 315.156 591.792ZM304.74 589.92C305.892 591.056 307.308 591.624 308.988 591.624C310.668 591.624 312.076 591.056 313.212 589.92C314.364 588.768 314.94 587.328 314.94 585.6C314.94 583.872 314.364 582.44 313.212 581.304C312.076 580.152 310.668 579.576 308.988 579.576C307.308 579.576 305.892 580.152 304.74 581.304C303.604 582.44 303.036 583.872 303.036 585.6C303.036 587.328 303.604 588.768 304.74 589.92ZM328.593 594L325.041 587.88H321.777V594H319.017V577.2H325.737C327.241 577.2 328.513 577.728 329.553 578.784C330.609 579.824 331.137 581.096 331.137 582.6C331.137 583.672 330.825 584.656 330.201 585.552C329.593 586.432 328.793 587.072 327.801 587.472L331.617 594H328.593ZM321.777 579.792V585.408H325.737C326.473 585.408 327.097 585.136 327.609 584.592C328.121 584.048 328.377 583.384 328.377 582.6C328.377 581.816 328.121 581.152 327.609 580.608C327.097 580.064 326.473 579.792 325.737 579.792H321.777ZM350.248 577.2L344.392 587.328V594H341.632V587.328L335.776 577.2H338.92L343.024 584.64L347.104 577.2H350.248ZM363.7 591.792C362.02 593.472 359.964 594.312 357.532 594.312C355.1 594.312 353.036 593.472 351.34 591.792C349.66 590.096 348.82 588.032 348.82 585.6C348.82 583.168 349.66 581.112 351.34 579.432C353.036 577.736 355.1 576.888 357.532 576.888C359.964 576.888 362.02 577.736 363.7 579.432C365.396 581.112 366.244 583.168 366.244 585.6C366.244 588.032 365.396 590.096 363.7 591.792ZM353.284 589.92C354.436 591.056 355.852 591.624 357.532 591.624C359.212 591.624 360.62 591.056 361.756 589.92C362.908 588.768 363.484 587.328 363.484 585.6C363.484 583.872 362.908 582.44 361.756 581.304C360.62 580.152 359.212 579.576 357.532 579.576C355.852 579.576 354.436 580.152 353.284 581.304C352.148 582.44 351.58 583.872 351.58 585.6C351.58 587.328 352.148 588.768 353.284 589.92ZM378.197 592.728C377.013 593.784 375.485 594.312 373.613 594.312C371.741 594.312 370.213 593.784 369.029 592.728C367.845 591.656 367.253 590.224 367.253 588.432V577.2H370.013V588.264C370.013 589.288 370.309 590.104 370.901 590.712C371.509 591.32 372.413 591.624 373.613 591.624C374.813 591.624 375.709 591.32 376.301 590.712C376.909 590.104 377.213 589.288 377.213 588.264V577.2H379.973V588.432C379.973 590.224 379.381 591.656 378.197 592.728ZM391.523 594L387.971 587.88H384.707V594H381.947V577.2H388.667C390.171 577.2 391.443 577.728 392.483 578.784C393.539 579.824 394.067 581.096 394.067 582.6C394.067 583.672 393.755 584.656 393.131 585.552C392.523 586.432 391.723 587.072 390.731 587.472L394.547 594H391.523ZM384.707 579.792V585.408H388.667C389.403 585.408 390.027 585.136 390.539 584.592C391.051 584.048 391.307 583.384 391.307 582.6C391.307 581.816 391.051 581.152 390.539 580.608C390.027 580.064 389.403 579.792 388.667 579.792H384.707ZM410.154 585.288C410.89 585.672 411.466 586.2 411.882 586.872C412.298 587.544 412.506 588.32 412.506 589.2C412.506 590.576 412.018 591.72 411.042 592.632C410.066 593.544 408.874 594 407.466 594H400.266V577.2H406.938C408.314 577.2 409.474 577.648 410.418 578.544C411.378 579.424 411.858 580.528 411.858 581.856C411.858 583.312 411.29 584.456 410.154 585.288ZM406.938 579.792H403.026V584.208H406.938C407.546 584.208 408.058 584 408.474 583.584C408.89 583.152 409.098 582.624 409.098 582C409.098 581.376 408.89 580.856 408.474 580.44C408.058 580.008 407.546 579.792 406.938 579.792ZM407.466 591.408C408.106 591.408 408.642 591.184 409.074 590.736C409.522 590.272 409.746 589.712 409.746 589.056C409.746 588.4 409.522 587.848 409.074 587.4C408.642 586.936 408.106 586.704 407.466 586.704H403.026V591.408H407.466ZM416.474 591.36H423.914V594H413.714V577.2H423.794V579.84H416.474V584.208H423.194V586.824H416.474V591.36ZM436.419 594L435.243 590.616H428.091L426.915 594H423.915L430.011 577.2H433.323L439.395 594H436.419ZM429.003 588.024H434.331L431.667 580.44L429.003 588.024ZM450.309 592.728C449.125 593.784 447.597 594.312 445.725 594.312C443.853 594.312 442.325 593.784 441.141 592.728C439.957 591.656 439.365 590.224 439.365 588.432V577.2H442.125V588.264C442.125 589.288 442.421 590.104 443.013 590.712C443.621 591.32 444.525 591.624 445.725 591.624C446.925 591.624 447.821 591.32 448.413 590.712C449.021 590.104 449.325 589.288 449.325 588.264V577.2H452.085V588.432C452.085 590.224 451.493 591.656 450.309 592.728ZM464.98 577.2V579.84H460.252V594H457.492V579.84H452.74V577.2H464.98ZM465.821 577.2H468.581V594H465.821V577.2ZM481.514 592.728C480.33 593.784 478.802 594.312 476.93 594.312C475.058 594.312 473.53 593.784 472.346 592.728C471.162 591.656 470.57 590.224 470.57 588.432V577.2H473.33V588.264C473.33 589.288 473.626 590.104 474.218 590.712C474.826 591.32 475.73 591.624 476.93 591.624C478.13 591.624 479.026 591.32 479.618 590.712C480.226 590.104 480.53 589.288 480.53 588.264V577.2H483.29V588.432C483.29 590.224 482.698 591.656 481.514 592.728ZM495.104 579.84H488.024V584.544H494.864V587.184H488.024V594H485.264V577.2H495.104V579.84ZM496.486 577.2H499.246V594H496.486V577.2ZM504.163 591.36H511.003V594H501.403V577.2H504.163V591.36ZM526.612 577.2H529.372V594H526.612V586.728H519.412V594H516.652V577.2H519.412V584.088H526.612V577.2ZM545.57 591.792C543.89 593.472 541.834 594.312 539.402 594.312C536.97 594.312 534.906 593.472 533.21 591.792C531.53 590.096 530.69 588.032 530.69 585.6C530.69 583.168 531.53 581.112 533.21 579.432C534.906 577.736 536.97 576.888 539.402 576.888C541.834 576.888 543.89 577.736 545.57 579.432C547.266 581.112 548.114 583.168 548.114 585.6C548.114 588.032 547.266 590.096 545.57 591.792ZM535.154 589.92C536.306 591.056 537.722 591.624 539.402 591.624C541.082 591.624 542.49 591.056 543.626 589.92C544.778 588.768 545.354 587.328 545.354 585.6C545.354 583.872 544.778 582.44 543.626 581.304C542.49 580.152 541.082 579.576 539.402 579.576C537.722 579.576 536.306 580.152 535.154 581.304C534.018 582.44 533.45 583.872 533.45 585.6C533.45 587.328 534.018 588.768 535.154 589.92ZM552.192 591.36H559.032V594H549.432V577.2H552.192V591.36ZM559.88 577.2H562.64V594H559.88V577.2ZM571.397 577.2C573.701 577.2 575.613 578.008 577.133 579.624C578.669 581.24 579.437 583.232 579.437 585.6C579.437 587.952 578.669 589.944 577.133 591.576C575.613 593.192 573.701 594 571.397 594H564.797V577.2H571.397ZM571.397 591.36C572.981 591.36 574.269 590.816 575.261 589.728C576.269 588.64 576.773 587.264 576.773 585.6C576.773 583.92 576.269 582.544 575.261 581.472C574.269 580.384 572.981 579.84 571.397 579.84H567.557V591.36H571.397ZM591.065 594L589.889 590.616H582.737L581.561 594H578.561L584.657 577.2H587.969L594.041 594H591.065ZM583.649 588.024H588.977L586.313 580.44L583.649 588.024ZM605.403 577.2L599.547 587.328V594H596.787V587.328L590.931 577.2H594.075L598.179 584.64L602.259 577.2H605.403Z" fill="black"/>
<defs>
<linearGradient id="paint0_linear_132_133" x1="349" y1="0" x2="349" y2="717" gradientUnits="userSpaceOnUse">
<stop stop-color="#FF1F00"/>
<stop offset="1" stop-color="#FFE600"/>
</linearGradient>
</defs>
</svg>
