<svg width="698" height="717" viewBox="0 0 698 717" fill="none" xmlns="http://www.w3.org/2000/svg">
<rect width="698" height="717" fill="#F2F3F5"/>
<path d="M158.487 87.7794C160.281 88.6235 162.18 89.7314 164.185 91.1031C166.19 92.3693 168.036 93.7409 169.724 95.2181C171.413 96.5898 172.837 97.9615 173.998 99.3331C175.158 100.599 175.739 101.602 175.739 102.34C174.261 102.024 172.626 101.76 170.832 101.549C169.144 101.338 167.509 101.232 165.926 101.232C160.228 101.232 154.689 102.499 149.308 105.031C143.926 107.458 138.809 110.992 133.955 115.635C129.102 120.278 124.617 125.975 120.502 132.728C116.493 139.375 113.011 146.92 110.057 155.361C107.63 162.43 105.678 169.447 104.201 176.411C102.723 183.269 101.985 189.019 101.985 193.662C101.985 199.571 103.198 202.631 105.625 202.842C106.258 202.842 107.313 202.947 108.79 203.158C110.373 203.475 112.009 203.844 113.697 204.266C115.491 204.688 117.231 205.11 118.92 205.532C120.713 206.06 122.191 206.535 123.351 206.957C127.361 206.746 132.056 204.899 137.437 201.417C142.818 197.935 148.094 193.293 153.264 187.49C157.801 182.425 161.864 176.885 165.451 170.871C169.144 164.751 172.257 158.368 174.789 151.721C177.321 144.968 179.221 138.057 180.487 130.987C181.858 123.918 182.544 116.901 182.544 109.937C182.544 107.827 182.491 105.769 182.386 103.765C182.28 101.76 182.122 100.388 181.911 99.6497C186.237 101.76 189.297 104.24 191.091 107.088C192.885 109.937 193.781 113.577 193.781 118.009C193.781 124.34 192.779 131.145 190.774 138.426C188.77 145.706 185.973 152.987 182.386 160.267C178.904 167.548 174.736 174.564 169.883 181.317C165.029 187.964 159.753 193.926 154.056 199.202C146.564 206.165 140.444 210.069 135.696 210.914C138.545 212.391 141.816 213.973 145.509 215.662C149.202 217.455 152.789 219.091 156.271 220.568C159.753 222.151 162.866 223.47 165.609 224.525C168.353 225.58 170.199 226.16 171.149 226.266C172.204 226.16 173.576 225.474 175.264 224.208C176.952 223.048 178.376 221.623 179.537 219.935C180.065 220.568 180.539 221.412 180.962 222.467C181.489 223.522 181.806 224.314 181.911 224.841C181.489 226.318 180.592 228.007 179.221 229.906C177.954 231.911 176.477 233.81 174.789 235.604C173.101 237.503 171.36 239.138 169.566 240.51C167.878 241.882 166.401 242.726 165.135 243.042C163.341 242.937 161.653 242.673 160.07 242.251C158.593 241.934 156.957 241.354 155.164 240.51C153.37 239.771 151.365 238.664 149.149 237.186C146.933 235.815 144.19 234.021 140.919 231.805C135.116 227.796 130.051 224.472 125.725 221.834C121.399 219.196 117.443 217.086 113.855 215.503C110.268 213.921 106.891 212.813 103.726 212.18C100.56 211.547 97.2895 211.23 93.913 211.23C82.0955 211.23 75.5537 215.187 74.2876 223.1C72.7049 222.362 71.808 221.359 71.597 220.093C72.23 214.712 74.182 210.597 77.453 207.748C80.8294 204.899 85.9995 203.053 92.9634 202.209C88.1098 197.988 85.683 190.602 85.683 180.051C85.683 172.665 86.5271 165.226 88.2153 157.735C90.009 150.138 92.3831 142.857 95.3375 135.894C98.3973 128.93 101.932 122.441 105.942 116.426C110.057 110.307 114.435 104.978 119.078 100.441C123.826 95.904 128.732 92.3693 133.797 89.8369C138.862 87.1991 143.874 85.8802 148.833 85.8802C150.626 85.8802 152.262 86.0385 153.739 86.355C155.322 86.6715 156.904 87.1464 158.487 87.7794ZM227.163 199.518C225.158 197.83 223.786 195.72 223.048 193.187C222.415 190.655 222.098 188.492 222.098 186.698C222.098 184.482 222.362 182.583 222.889 181C222.467 181 221.518 181.845 220.041 183.533C218.563 185.221 216.928 187.226 215.134 189.547C213.446 191.868 211.758 194.137 210.07 196.353C208.381 198.568 207.115 200.204 206.271 201.259C204.899 202.736 203.581 203.897 202.314 204.741C201.154 205.585 200.204 206.06 199.466 206.165C197.777 206.06 195.984 205.691 194.084 205.058C192.291 204.53 190.55 203.739 188.861 202.683C187.279 201.628 185.854 200.362 184.588 198.885C183.428 197.408 182.636 195.72 182.214 193.82C182.214 190.866 182.267 188.439 182.372 186.54C182.583 184.641 182.953 182.583 183.48 180.367C184.43 176.358 185.802 171.821 187.595 166.756C189.495 161.692 191.658 156.732 194.084 151.879C196.511 146.92 199.202 142.33 202.156 138.109C205.216 133.783 208.434 130.407 211.811 127.98C212.76 127.98 213.868 128.086 215.134 128.297C216.4 128.402 217.667 128.666 218.933 129.088C220.304 129.51 221.571 130.038 222.731 130.671C223.997 131.198 225.053 131.937 225.897 132.886C224.947 133.942 222.52 137.476 218.616 143.49C214.818 149.505 210.544 158.157 205.796 169.447C205.269 170.607 204.636 172.296 203.897 174.511C203.158 176.727 202.42 179.048 201.681 181.475C200.943 183.902 200.31 186.276 199.782 188.597C199.36 190.919 199.149 192.765 199.149 194.137C199.149 194.981 199.255 195.614 199.466 196.036C199.782 196.458 200.046 196.775 200.257 196.986C201.84 196.353 203.844 194.612 206.271 191.763C208.698 188.914 212.074 184.535 216.4 178.626C217.456 177.149 218.669 175.461 220.041 173.562C221.518 171.663 222.995 169.658 224.472 167.548C225.949 165.332 227.321 163.063 228.587 160.742C229.959 158.421 231.067 156.099 231.911 153.778C232.333 152.512 232.861 151.035 233.494 149.346C234.232 147.553 235.076 145.706 236.026 143.807C237.081 141.908 238.242 140.009 239.508 138.109C240.88 136.105 242.462 134.258 244.256 132.57C245.628 132.57 247.105 132.728 248.687 133.045C250.27 133.361 251.747 133.783 253.119 134.311C254.596 134.733 255.862 135.26 256.918 135.894C257.973 136.421 258.764 137.001 259.292 137.634C257.392 142.277 255.282 146.867 252.961 151.404C250.64 155.941 248.476 160.425 246.472 164.857C244.467 169.183 242.779 173.509 241.407 177.835C240.035 182.161 239.35 186.382 239.35 190.497C239.35 192.712 239.508 194.664 239.824 196.353C240.246 197.935 240.668 199.307 241.091 200.468C241.513 201.523 241.882 202.42 242.198 203.158C242.62 203.897 242.832 204.53 242.832 205.058C242.832 205.163 242.726 205.321 242.515 205.532C242.409 205.638 242.304 205.691 242.198 205.691C241.46 205.691 240.51 205.532 239.35 205.216C238.189 204.899 236.87 204.424 235.393 203.791C234.021 203.264 232.597 202.631 231.12 201.892C229.748 201.154 228.429 200.362 227.163 199.518ZM253.793 192.396C253.793 191.446 253.846 190.286 253.951 188.914C254.162 187.437 254.479 185.538 254.901 183.216C255.323 180.789 255.85 177.888 256.484 174.511C257.222 171.135 258.119 167.073 259.174 162.325C259.385 161.269 259.86 159.581 260.599 157.26C261.337 154.939 262.287 152.512 263.447 149.98C264.714 147.342 266.191 144.809 267.879 142.383C269.673 139.956 271.783 138.162 274.21 137.001C276.004 137.423 278.378 138.531 281.332 140.325C284.286 142.013 286.819 144.387 288.929 147.447C286.502 150.191 284.445 152.934 282.756 155.677C281.174 158.421 279.696 161.269 278.325 164.224C277.059 167.178 275.845 170.238 274.685 173.404C273.629 176.569 272.416 179.893 271.044 183.375C269.884 186.329 268.829 189.389 267.879 192.554C266.929 195.614 266.402 198.305 266.296 200.626C266.296 202.525 266.244 203.844 266.138 204.583C266.138 205.427 265.874 205.849 265.347 205.849C264.925 205.849 264.08 205.585 262.814 205.058C261.548 204.53 260.229 203.739 258.858 202.683C257.591 201.523 256.431 200.098 255.376 198.41C254.321 196.722 253.793 194.717 253.793 192.396ZM284.023 123.707C284.023 123.074 284.181 122.124 284.497 120.858C283.97 120.33 283.495 119.539 283.073 118.484C282.756 117.429 282.598 116.479 282.598 115.635C282.598 114.685 282.704 113.419 282.915 111.836C283.231 110.148 283.6 108.355 284.023 106.455C284.445 104.556 284.972 102.604 285.605 100.599C286.238 98.489 286.871 96.5898 287.504 94.9016C288.771 94.9016 290.301 95.2709 292.094 96.0095C293.994 96.6426 295.893 97.5394 297.792 98.7001C299.691 99.7552 301.432 100.969 303.015 102.34C304.598 103.606 305.811 104.82 306.655 105.98C305.494 107.141 303.965 108.777 302.065 110.887C300.166 112.892 298.32 115.055 296.526 117.376C294.732 119.592 293.097 121.702 291.619 123.707C290.142 125.711 289.193 127.136 288.771 127.98C287.504 127.769 286.397 127.241 285.447 126.397C284.497 125.448 284.023 124.551 284.023 123.707ZM308.765 126.239C311.508 127.083 314.093 128.982 316.52 131.937C318.947 134.786 320.74 137.951 321.901 141.433C320.74 144.282 318.947 147.711 316.52 151.721C314.093 155.73 311.666 159.845 309.239 164.066C306.813 168.181 304.597 172.137 302.592 175.936C300.693 179.629 299.585 182.689 299.268 185.115C300.957 183.322 302.803 181.264 304.808 178.943C306.918 176.516 308.923 174.142 310.822 171.821C312.827 169.394 314.673 167.231 316.362 165.332C318.05 163.327 319.369 161.85 320.318 160.9C322.323 158.79 324.697 156.363 327.44 153.62C330.184 150.771 333.033 148.133 335.987 145.706C339.047 143.174 342.107 141.064 345.167 139.375C348.227 137.582 351.023 136.685 353.555 136.685C356.298 136.685 358.567 137.634 360.361 139.534C362.26 141.327 363.737 143.227 364.792 145.231C364.792 145.442 364.37 145.759 363.526 146.181C362.787 146.498 361.68 147.5 360.202 149.188C358.725 151.087 357.037 153.725 355.138 157.102C353.344 160.373 351.55 163.96 349.756 167.864C348.068 171.663 346.644 175.567 345.483 179.576C344.323 183.586 343.742 187.226 343.742 190.497C343.742 193.135 344.059 194.823 344.692 195.561C345.43 196.3 346.433 196.669 347.699 196.669C348.86 196.669 350.073 196.405 351.339 195.878C352.605 195.35 353.608 195.086 354.346 195.086C354.768 195.298 355.085 195.772 355.296 196.511C355.612 197.144 355.771 197.724 355.771 198.252C354.927 198.99 353.924 199.729 352.764 200.468C351.603 201.206 350.39 201.892 349.123 202.525C347.857 203.158 346.591 203.686 345.325 204.108C344.164 204.53 343.109 204.741 342.16 204.741C339.1 204.741 336.567 204.266 334.563 203.317C332.663 202.472 331.133 201.312 329.973 199.835C328.918 198.357 328.179 196.616 327.757 194.612C327.335 192.501 327.124 190.286 327.124 187.964C327.124 186.698 327.229 185.274 327.44 183.691C327.651 182.108 328.074 180.262 328.707 178.152C329.34 175.936 330.237 173.351 331.397 170.396C332.558 167.336 334.035 163.696 335.829 159.476C335.618 159.476 334.193 160.214 331.555 161.692C328.918 163.169 326.069 165.437 323.009 168.497C318.05 173.245 313.565 177.941 309.556 182.583C305.652 187.226 301.642 192.396 297.527 198.094C295.206 201.365 293.149 204.108 291.355 206.324C289.667 208.645 288.189 210.175 286.923 210.914C284.708 209.647 283.072 207.854 282.017 205.532C280.962 203.317 280.17 200.995 279.643 198.568C279.643 196.564 279.907 194.031 280.434 190.971C281.067 187.912 281.859 184.535 282.808 180.842C283.863 177.044 285.13 173.087 286.607 168.972C288.084 164.857 289.719 160.742 291.513 156.627C295.523 147.342 299.163 140.061 302.434 134.786C305.81 129.51 307.92 126.661 308.765 126.239ZM370.021 142.383C369.494 141.75 369.019 140.431 368.597 138.426C368.175 136.316 367.964 134.522 367.964 133.045C370.707 133.256 373.345 133.467 375.877 133.678C378.41 133.783 380.731 133.889 382.841 133.994C384.424 130.829 386.112 127.716 387.906 124.656C389.805 121.491 391.599 118.642 393.287 116.11C395.081 113.472 396.716 111.256 398.193 109.462C399.776 107.669 400.989 106.508 401.834 105.98C402.889 105.98 404.208 106.192 405.79 106.614C407.478 106.93 409.167 107.405 410.855 108.038C412.543 108.566 414.073 109.146 415.445 109.779C416.816 110.412 417.766 111.045 418.294 111.678C415.128 115.688 412.385 119.433 410.064 122.915C407.848 126.292 405.421 130.196 402.783 134.627C404.893 134.627 407.004 134.575 409.114 134.469C411.33 134.364 413.545 134.205 415.761 133.994C416.289 134.522 416.711 135.208 417.027 136.052C417.344 136.79 417.502 137.582 417.502 138.426C412.332 140.325 406.054 141.38 398.668 141.591C396.03 146.656 393.656 151.721 391.546 156.785C389.541 161.744 387.8 166.545 386.323 171.188C384.951 175.83 383.843 180.209 382.999 184.324C382.261 188.439 381.891 192.132 381.891 195.403C381.891 200.046 383.632 202.631 387.114 203.158C390.28 202.736 393.287 201.945 396.136 200.784C398.985 199.624 401.517 198.146 403.733 196.353C404.366 197.302 404.735 198.094 404.841 198.727C404.208 199.676 403.1 200.784 401.517 202.05C400.04 203.317 398.404 204.53 396.611 205.691C394.817 206.957 393.076 208.012 391.388 208.856C389.699 209.7 388.433 210.175 387.589 210.28C384.951 210.175 382.314 209.595 379.676 208.539C377.038 207.484 374.611 206.165 372.395 204.583C370.285 203 368.544 201.259 367.172 199.36C365.801 197.355 365.115 195.403 365.115 193.504C365.115 190.971 365.431 187.806 366.064 184.008C366.803 180.104 367.805 175.883 369.072 171.346C370.338 166.809 371.815 162.061 373.503 157.102C375.191 152.143 377.038 147.236 379.043 142.383H370.021ZM463.015 139.059C464.07 139.059 465.283 139.27 466.655 139.692C468.132 140.009 469.451 140.483 470.612 141.116C471.772 141.644 472.722 142.224 473.461 142.857C474.305 143.49 474.727 144.071 474.727 144.598C472.616 149.03 470.664 153.514 468.871 158.051C467.077 162.483 465.547 166.756 464.281 170.871C463.015 174.986 462.012 178.837 461.274 182.425C460.641 186.012 460.324 189.125 460.324 191.763C460.324 194.717 460.641 197.197 461.274 199.202C461.907 201.101 462.962 202.472 464.439 203.317C463.173 204.161 461.538 204.846 459.533 205.374C457.528 205.902 455.734 206.165 454.152 206.165C448.454 206.165 445.605 202.261 445.605 194.453C445.605 188.439 447.61 180.209 451.619 169.763C449.509 174.617 447.082 179.207 444.339 183.533C441.596 187.753 438.799 191.499 435.951 194.77C433.102 198.041 430.2 200.731 427.246 202.842C424.397 204.846 421.759 206.06 419.332 206.482C415.428 206.271 412.263 204.424 409.836 200.942C407.409 197.355 406.196 192.818 406.196 187.331C406.196 181.423 407.462 175.197 409.994 168.655C412.527 162.114 415.745 156.047 419.649 150.454C423.658 144.862 427.984 140.22 432.627 136.527C437.27 132.728 441.754 130.723 446.08 130.512C447.135 130.829 448.296 131.462 449.562 132.412C450.933 133.361 452.2 134.469 453.36 135.735C454.626 137.001 455.682 138.32 456.526 139.692C457.37 140.958 457.845 142.066 457.95 143.016C453.73 143.649 449.351 145.706 444.814 149.188C440.382 152.67 436.32 156.891 432.627 161.85C429.039 166.703 426.085 171.926 423.764 177.519C421.443 183.111 420.282 188.334 420.282 193.187C420.282 195.192 421.02 196.458 422.498 196.986C425.558 196.353 429.092 193.768 433.102 189.231C437.111 184.588 441.965 177.466 447.663 167.864C448.718 165.965 449.878 163.855 451.145 161.533C452.516 159.212 453.888 156.785 455.26 154.253C456.631 151.721 457.95 149.188 459.216 146.656C460.588 144.018 461.854 141.486 463.015 139.059ZM183.177 308.326C183.494 310.12 183.705 311.386 183.81 312.124C184.021 312.758 184.127 313.654 184.127 314.815C184.127 318.297 183.336 321.568 181.753 324.628C180.276 327.582 178.218 329.692 175.58 330.959C173.47 328.11 170.885 325.683 167.825 323.678C164.765 321.568 161.389 319.88 157.696 318.614C154.108 317.242 150.363 316.24 146.459 315.606C142.555 314.973 138.756 314.657 135.063 314.657C131.37 314.657 127.888 314.973 124.617 315.606C121.452 316.134 118.603 316.925 116.071 317.98C113.644 318.93 111.692 320.144 110.215 321.621C108.843 323.098 108.157 324.786 108.157 326.685C108.474 329.007 109.898 331.381 112.431 333.807C114.963 336.129 118.076 338.45 121.769 340.771C125.462 342.987 129.524 345.203 133.955 347.419C138.492 349.634 142.924 351.745 147.25 353.75C152.631 356.282 157.274 358.656 161.178 360.872C165.082 362.982 168.3 365.356 170.832 367.994C173.365 370.526 175.264 373.428 176.53 376.699C177.796 379.97 178.429 383.926 178.429 388.569C178.429 393.95 177.532 399.015 175.739 403.763C173.945 408.405 171.307 412.468 167.825 415.95C164.449 419.432 160.334 422.122 155.48 424.021C150.626 426.026 145.193 427.029 139.178 427.029C133.27 427.029 126.886 426.132 120.028 424.338C113.169 422.544 106.733 420.065 100.719 416.899C94.8099 413.839 89.8508 410.305 85.8413 406.295C81.9373 402.18 79.9853 397.854 79.9853 393.317C79.9853 391.207 80.5656 388.516 81.7262 385.245C82.9924 381.974 85.2082 378.545 88.3736 374.958C88.6901 378.123 90.3783 381.869 93.4382 386.195C96.6036 390.521 101.299 394.53 107.524 398.223C113.327 401.6 119.289 404.079 125.409 405.662C131.634 407.139 137.437 407.878 142.818 407.878C148.727 407.878 153.528 407.139 157.221 405.662C160.914 404.185 163.816 402.444 165.926 400.439C168.036 398.329 169.513 396.219 170.357 394.108C171.202 391.998 171.676 390.31 171.782 389.044C171.676 386.933 170.674 384.929 168.775 383.029C166.981 381.025 164.501 379.125 161.336 377.332C158.276 375.432 154.689 373.533 150.574 371.634C146.459 369.735 142.185 367.836 137.754 365.936C131.106 362.982 125.356 360.239 120.502 357.706C115.754 355.068 111.798 352.431 108.632 349.793C105.572 347.049 103.304 344.201 101.827 341.246C100.455 338.292 99.769 334.915 99.769 331.117C99.769 325.208 101.563 319.616 105.15 314.34C108.738 309.065 113.908 305.055 120.661 302.312C124.037 300.835 127.625 299.779 131.423 299.146C135.327 298.513 139.125 298.197 142.818 298.197C149.782 298.197 156.588 299.146 163.235 301.046C169.883 302.945 176.53 305.372 183.177 308.326ZM200.471 420.539C194.457 419.906 189.656 417.269 186.068 412.626C182.481 407.983 180.687 402.075 180.687 394.9C180.687 390.679 181.32 386.3 182.586 381.763C183.852 377.226 185.646 372.847 187.967 368.627C190.289 364.301 193.032 360.239 196.197 356.44C199.363 352.642 202.792 349.371 206.485 346.627C212.288 342.301 217.722 340.138 222.787 340.138C226.163 341.932 229.487 345.678 232.758 351.375C233.285 351.375 233.76 351.375 234.182 351.375C234.604 351.27 235.079 351.217 235.607 351.217C241.199 351.217 243.995 356.176 243.995 366.095C243.995 372.742 242.887 379.073 240.671 385.087C238.561 390.996 235.554 396.377 231.65 401.231C227.851 406.084 223.262 410.199 217.88 413.576C212.605 416.846 206.802 419.168 200.471 420.539ZM208.543 370.684C206.749 373.111 205.061 375.749 203.478 378.598C201.895 381.447 200.524 384.348 199.363 387.303C198.202 390.152 197.305 392.948 196.672 395.691C196.039 398.329 195.723 400.703 195.723 402.813C195.723 405.346 196.145 407.772 196.989 410.094C197.833 412.415 198.783 413.734 199.838 414.05C204.586 412.995 208.912 411.043 212.816 408.194C216.825 405.24 220.255 401.6 223.103 397.274C226.058 392.948 228.326 388.041 229.909 382.555C231.597 377.068 232.441 371.212 232.441 364.987C232.441 362.243 232.283 360.08 231.967 358.498C231.65 356.915 231.122 355.543 230.384 354.383C225.741 355.754 221.573 357.97 217.88 361.03C214.293 364.09 211.18 367.308 208.543 370.684ZM286.792 411.518C284.787 409.83 283.416 407.72 282.677 405.187C282.044 402.655 281.728 400.492 281.728 398.698C281.728 396.482 281.991 394.583 282.519 393C282.097 393 281.147 393.845 279.67 395.533C278.193 397.221 276.557 399.226 274.764 401.547C273.075 403.868 271.387 406.137 269.699 408.353C268.011 410.568 266.745 412.204 265.901 413.259C264.529 414.736 263.21 415.897 261.944 416.741C260.783 417.585 259.834 418.06 259.095 418.165C257.407 418.06 255.613 417.691 253.714 417.058C251.92 416.53 250.179 415.739 248.491 414.683C246.908 413.628 245.484 412.362 244.218 410.885C243.057 409.408 242.266 407.72 241.844 405.82C241.844 402.866 241.896 400.439 242.002 398.54C242.213 396.641 242.582 394.583 243.11 392.367C244.059 388.358 245.431 383.821 247.225 378.756C249.124 373.692 251.287 368.732 253.714 363.879C256.141 358.92 258.831 354.33 261.786 350.109C264.845 345.783 268.064 342.407 271.44 339.98C272.39 339.98 273.498 340.086 274.764 340.297C276.03 340.402 277.296 340.666 278.562 341.088C279.934 341.51 281.2 342.038 282.361 342.671C283.627 343.198 284.682 343.937 285.526 344.886C284.576 345.942 282.15 349.476 278.246 355.49C274.447 361.505 270.174 370.157 265.426 381.447C264.898 382.607 264.265 384.296 263.527 386.511C262.788 388.727 262.049 391.048 261.311 393.475C260.572 395.902 259.939 398.276 259.412 400.597C258.989 402.919 258.778 404.765 258.778 406.137C258.778 406.981 258.884 407.614 259.095 408.036C259.412 408.458 259.675 408.775 259.886 408.986C261.469 408.353 263.474 406.612 265.901 403.763C268.327 400.914 271.704 396.535 276.03 390.626C277.085 389.149 278.298 387.461 279.67 385.562C281.147 383.663 282.624 381.658 284.102 379.548C285.579 377.332 286.95 375.063 288.217 372.742C289.588 370.421 290.696 368.099 291.54 365.778C291.962 364.512 292.49 363.035 293.123 361.346C293.862 359.553 294.706 357.706 295.655 355.807C296.71 353.908 297.871 352.009 299.137 350.109C300.509 348.105 302.092 346.258 303.885 344.57C305.257 344.57 306.734 344.728 308.317 345.045C309.9 345.361 311.377 345.783 312.749 346.311C314.226 346.733 315.492 347.26 316.547 347.894C317.602 348.421 318.393 349.001 318.921 349.634C317.022 354.277 314.912 358.867 312.59 363.404C310.269 367.941 308.106 372.425 306.101 376.857C304.096 381.183 302.408 385.509 301.037 389.835C299.665 394.161 298.979 398.382 298.979 402.497C298.979 404.712 299.137 406.664 299.454 408.353C299.876 409.935 300.298 411.307 300.72 412.468C301.142 413.523 301.511 414.42 301.828 415.158C302.25 415.897 302.461 416.53 302.461 417.058C302.461 417.163 302.355 417.321 302.144 417.532C302.039 417.638 301.933 417.691 301.828 417.691C301.089 417.691 300.14 417.532 298.979 417.216C297.818 416.899 296.499 416.424 295.022 415.791C293.651 415.264 292.226 414.631 290.749 413.892C289.377 413.154 288.058 412.362 286.792 411.518ZM308.339 412.784C308.339 411.096 309.816 408.405 312.771 404.712C315.725 400.914 319.629 396.641 324.483 391.893C329.442 387.039 335.087 381.974 341.418 376.699C347.854 371.317 354.501 366.147 361.36 361.188C356.928 360.239 353.393 359.553 350.756 359.131C348.223 358.709 346.166 358.498 344.583 358.498C341.523 358.498 338.78 358.92 336.353 359.764C333.926 360.608 331.552 361.98 329.231 363.879C324.377 359.658 321.95 354.805 321.95 349.318C321.95 347.63 322.003 346.627 322.109 346.311C323.902 344.517 326.013 343.145 328.44 342.196C330.972 341.246 333.61 340.771 336.353 340.771C339.307 340.771 342.315 341.246 345.374 342.196C348.434 343.145 351.441 344.201 354.396 345.361C357.35 346.416 360.094 347.419 362.626 348.368C365.264 349.318 367.585 349.793 369.59 349.793C370.75 349.793 372.017 349.634 373.388 349.318C374.865 349.001 376.079 348.579 377.028 348.052C377.978 348.79 378.822 350.268 379.561 352.483C380.405 354.699 380.827 356.862 380.827 358.972C377.556 360.239 373.599 362.454 368.957 365.62C364.42 368.785 359.777 372.425 355.029 376.54C350.281 380.655 345.638 385.034 341.101 389.677C336.67 394.319 332.977 398.698 330.022 402.813C332.238 403.763 335.245 404.238 339.044 404.238C341.47 404.238 343.95 404.027 346.482 403.605C349.015 403.183 351.441 402.602 353.763 401.864C356.19 401.125 358.405 400.281 360.41 399.331C362.415 398.276 364.103 397.168 365.475 396.008C370.434 399.173 372.913 403.816 372.913 409.935C372.913 410.779 372.861 411.465 372.755 411.993C372.755 412.52 372.702 413.154 372.597 413.892C367.743 416.952 362.468 418.482 356.77 418.482C353.921 418.482 351.072 418.165 348.223 417.532C345.374 417.005 342.578 416.424 339.835 415.791C337.197 415.158 334.665 414.578 332.238 414.05C329.917 413.417 327.754 413.101 325.749 413.101C320.684 413.101 316.569 415.475 313.404 420.223C312.032 419.695 310.872 418.746 309.922 417.374C309.078 416.002 308.55 414.472 308.339 412.784ZM434.607 351.059C435.662 351.059 436.875 351.27 438.247 351.692C439.724 352.009 441.043 352.483 442.203 353.116C443.364 353.644 444.314 354.224 445.052 354.857C445.896 355.49 446.319 356.071 446.319 356.598C444.208 361.03 442.256 365.514 440.463 370.051C438.669 374.483 437.139 378.756 435.873 382.871C434.607 386.986 433.604 390.837 432.866 394.425C432.232 398.012 431.916 401.125 431.916 403.763C431.916 406.717 432.232 409.197 432.866 411.202C433.499 413.101 434.554 414.472 436.031 415.317C434.765 416.161 433.129 416.846 431.125 417.374C429.12 417.902 427.326 418.165 425.743 418.165C420.046 418.165 417.197 414.261 417.197 406.453C417.197 400.439 419.202 392.209 423.211 381.763C421.101 386.617 418.674 391.207 415.931 395.533C413.187 399.753 410.391 403.499 407.542 406.77C404.693 410.041 401.792 412.731 398.838 414.842C395.989 416.846 393.351 418.06 390.924 418.482C387.02 418.271 383.855 416.424 381.428 412.942C379.001 409.355 377.788 404.818 377.788 399.331C377.788 393.423 379.054 387.197 381.586 380.655C384.118 374.114 387.337 368.047 391.241 362.454C395.25 356.862 399.576 352.22 404.219 348.527C408.861 344.728 413.346 342.723 417.672 342.512C418.727 342.829 419.887 343.462 421.154 344.412C422.525 345.361 423.791 346.469 424.952 347.735C426.218 349.001 427.273 350.32 428.117 351.692C428.962 352.958 429.436 354.066 429.542 355.016C425.321 355.649 420.943 357.706 416.405 361.188C411.974 364.67 407.912 368.891 404.219 373.85C400.631 378.703 397.677 383.926 395.356 389.519C393.034 395.111 391.874 400.334 391.874 405.187C391.874 407.192 392.612 408.458 394.089 408.986C397.149 408.353 400.684 405.768 404.693 401.231C408.703 396.588 413.557 389.466 419.254 379.864C420.309 377.965 421.47 375.855 422.736 373.533C424.108 371.212 425.48 368.785 426.851 366.253C428.223 363.721 429.542 361.188 430.808 358.656C432.18 356.018 433.446 353.486 434.607 351.059ZM138.862 617.979C141.5 622.516 142.818 626.894 142.818 631.115C142.818 632.065 142.713 632.909 142.502 633.647C142.396 634.491 142.238 635.336 142.027 636.18C140.233 635.969 138.334 635.81 136.329 635.705C134.43 635.599 132.425 635.547 130.315 635.547C127.783 635.547 125.198 635.599 122.56 635.705C120.028 635.916 117.179 636.18 114.013 636.496C110.848 636.813 107.313 637.235 103.409 637.762C99.5052 638.29 94.9682 638.976 89.798 639.82C87.3712 638.976 84.9444 637.288 82.5176 634.755C80.0908 632.328 77.8222 629.374 75.712 625.892C76.7671 623.571 78.086 620.722 79.6687 617.346C81.2514 613.864 83.0979 609.696 85.2082 604.842C87.3184 599.883 89.6397 594.133 92.1721 587.591C94.8099 580.943 97.606 573.294 100.56 564.642C102.46 558.944 104.095 553.932 105.467 549.606C106.838 545.28 108.052 541.112 109.107 537.103C110.268 532.988 111.375 528.714 112.431 524.283C113.486 519.851 114.646 514.734 115.913 508.931C120.133 509.775 123.773 511.357 126.833 513.679C129.999 515.894 133.006 519.113 135.855 523.333C135.01 524.705 133.903 526.921 132.531 529.98C131.159 533.04 129.524 536.786 127.625 541.218C125.831 545.544 123.826 550.503 121.61 556.095C119.395 561.582 117.073 567.49 114.646 573.821C112.325 580.047 110.057 585.903 107.841 591.389C105.625 596.876 103.62 601.835 101.827 606.267C100.138 610.698 98.7666 614.497 97.7115 617.662C96.6564 620.827 96.1288 623.202 96.1288 624.784C97.817 624.679 99.347 624.573 100.719 624.468C102.09 624.362 103.515 624.204 104.992 623.993C106.469 623.676 108.052 623.36 109.74 623.043C111.534 622.621 113.644 622.094 116.071 621.461C118.181 620.933 120.133 620.511 121.927 620.194C123.721 619.772 125.462 619.456 127.15 619.245C128.943 618.928 130.737 618.717 132.531 618.612C134.43 618.401 136.54 618.19 138.862 617.979ZM162.14 632.539C156.126 631.906 151.325 629.269 147.737 624.626C144.15 619.983 142.356 614.075 142.356 606.9C142.356 602.679 142.989 598.3 144.255 593.763C145.521 589.226 147.315 584.847 149.636 580.627C151.958 576.301 154.701 572.239 157.866 568.44C161.032 564.642 164.461 561.371 168.154 558.627C173.957 554.301 179.391 552.138 184.456 552.138C187.832 553.932 191.156 557.678 194.427 563.375C194.954 563.375 195.429 563.375 195.851 563.375C196.273 563.27 196.748 563.217 197.276 563.217C202.868 563.217 205.664 568.176 205.664 578.095C205.664 584.742 204.556 591.073 202.34 597.087C200.23 602.996 197.223 608.377 193.319 613.231C189.52 618.084 184.931 622.199 179.549 625.576C174.274 628.846 168.471 631.168 162.14 632.539ZM170.212 582.684C168.418 585.111 166.73 587.749 165.147 590.598C163.564 593.447 162.193 596.348 161.032 599.303C159.871 602.152 158.974 604.948 158.341 607.691C157.708 610.329 157.392 612.703 157.392 614.813C157.392 617.346 157.814 619.772 158.658 622.094C159.502 624.415 160.452 625.734 161.507 626.05C166.255 624.995 170.581 623.043 174.485 620.194C178.494 617.24 181.924 613.6 184.772 609.274C187.727 604.948 189.995 600.041 191.578 594.555C193.266 589.068 194.11 583.212 194.11 576.987C194.11 574.243 193.952 572.08 193.636 570.498C193.319 568.915 192.791 567.543 192.053 566.383C187.41 567.754 183.242 569.97 179.549 573.03C175.962 576.09 172.849 579.308 170.212 582.684ZM193.858 679.387C192.381 678.965 191.537 677.383 191.326 674.639C190.904 673.268 190.587 671.632 190.376 669.733C190.271 667.834 190.218 665.671 190.218 663.244C190.218 661.028 190.587 657.968 191.326 654.064C192.064 650.266 193.067 645.94 194.333 641.086C195.705 636.232 197.34 631.01 199.239 625.417C201.138 619.72 203.249 613.969 205.57 608.166C208.419 600.885 210.898 594.607 213.009 589.332C215.119 583.951 216.86 579.308 218.232 575.404C219.709 571.5 220.869 568.282 221.714 565.75C222.663 563.217 223.402 561.054 223.929 559.26C224.351 557.994 224.984 556.464 225.829 554.671C226.673 552.877 227.622 551.083 228.677 549.289C229.838 547.39 230.999 545.649 232.159 544.067C233.32 542.378 234.375 541.112 235.325 540.268C239.018 540.796 242.5 541.745 245.771 543.117C249.042 544.489 251.046 545.807 251.785 547.074C250.308 548.445 248.619 550.608 246.72 553.563C244.821 556.412 242.975 559.577 241.181 563.059C239.387 566.435 237.752 569.917 236.274 573.505C234.797 577.092 233.689 580.258 232.951 583.001C234.006 581.207 235.378 579.255 237.066 577.145C238.754 575.035 241.339 572.133 244.821 568.44C248.725 564.431 252.365 561.371 255.742 559.26C259.224 557.045 262.231 555.937 264.763 555.937C268.773 555.937 272.043 557.045 274.576 559.26C277.214 561.476 278.533 564.325 278.533 567.807C278.533 575.404 277.266 582.948 274.734 590.44C272.202 597.826 268.562 604.526 263.813 610.54C262.02 612.861 259.909 615.077 257.483 617.187C255.056 619.298 252.523 621.197 249.886 622.885C247.248 624.468 244.663 625.734 242.13 626.683C239.598 627.633 237.33 628.108 235.325 628.108C233.426 628.108 231.737 627.739 230.26 627C228.888 626.156 227.939 625.154 227.411 623.993C231.526 621.566 235.536 618.19 239.44 613.864C243.344 609.538 246.931 604.578 250.202 598.986C253.579 593.288 256.48 587.169 258.907 580.627C261.439 574.085 263.339 567.438 264.605 560.685C260.595 562.795 256.955 565.116 253.684 567.649C250.519 570.076 247.353 573.294 244.188 577.303C240.389 581.946 237.382 585.692 235.167 588.54C232.951 591.389 231.104 593.816 229.627 595.821C228.255 597.826 227.095 599.725 226.145 601.519C225.301 603.207 224.351 605.317 223.296 607.849C221.819 611.226 220.078 615.71 218.073 621.302C216.174 626.789 214.169 632.962 212.059 639.82C210.054 646.678 207.997 653.959 205.887 661.661C203.882 669.469 201.93 677.224 200.031 684.927C198.87 684.716 197.868 683.872 197.023 682.395C196.179 681.445 195.546 680.759 195.124 680.337C194.808 679.915 194.386 679.598 193.858 679.387ZM332.985 561.476C332.563 568.018 331.402 573.663 329.503 578.411C327.604 583.054 324.86 587.169 321.273 590.756C317.791 594.238 313.518 597.404 308.453 600.252C303.388 603.101 297.48 605.845 290.727 608.482C290.727 609.115 290.674 609.801 290.568 610.54C290.568 611.173 290.568 611.859 290.568 612.597C290.568 613.969 290.674 615.394 290.885 616.871C291.096 618.348 291.465 619.72 291.993 620.986C292.52 622.252 293.259 623.307 294.209 624.151C295.158 624.89 296.372 625.259 297.849 625.259C300.698 625.259 303.494 624.626 306.237 623.36C308.981 622.094 311.566 620.564 313.992 618.77C316.525 616.871 318.846 614.866 320.956 612.756C323.172 610.54 325.124 608.535 326.812 606.741C327.867 607.691 328.764 608.588 329.503 609.432C324.755 615.763 319.532 621.038 313.834 625.259C308.242 629.374 302.914 632.012 297.849 633.173C290.568 632.328 284.871 629.691 280.756 625.259C276.746 620.722 274.741 615.288 274.741 608.957C274.741 604.631 275.322 600.252 276.482 595.821C277.749 591.284 279.437 586.958 281.547 582.843C283.763 578.622 286.295 574.665 289.144 570.972C292.098 567.279 295.211 564.061 298.482 561.318C301.858 558.575 305.288 556.412 308.77 554.829C312.357 553.246 315.892 552.455 319.374 552.455C324.227 553.088 328.764 556.095 332.985 561.476ZM322.064 566.699C319.215 567.121 316.261 568.282 313.201 570.181C310.141 572.08 307.24 574.613 304.496 577.778C301.858 580.943 299.432 584.636 297.216 588.857C295 593.077 293.259 597.615 291.993 602.468C300.434 598.248 307.451 593.077 313.043 586.958C318.635 580.732 321.642 573.98 322.064 566.699ZM387.002 564.009C386.896 566.013 386.527 568.124 385.894 570.339C385.366 572.45 384.681 574.402 383.836 576.195C382.992 577.884 382.096 579.308 381.146 580.469C380.196 581.629 379.299 582.21 378.455 582.21C377.295 582.104 376.609 581.313 376.398 579.836C376.398 579.519 376.503 579.044 376.714 578.411C377.031 577.673 377.347 576.881 377.664 576.037C377.98 575.193 378.244 574.349 378.455 573.505C378.772 572.661 378.93 571.922 378.93 571.289C378.93 569.812 378.561 568.598 377.822 567.649C377.189 566.594 376.292 566.066 375.132 566.066C370.911 566.066 367.693 568.704 365.477 573.98C363.261 579.255 362.153 587.01 362.153 597.245C362.153 598.3 362.206 598.933 362.312 599.144C364.528 599.039 366.48 598.986 368.168 598.986C369.961 598.881 371.702 598.828 373.391 598.828C373.496 599.039 373.549 599.461 373.549 600.094C373.549 601.044 373.338 601.73 372.916 602.152C370.489 602.679 368.537 603.154 367.06 603.576C365.688 603.893 364.633 604.209 363.894 604.526C363.156 604.842 362.681 605.211 362.47 605.634C362.365 605.95 362.312 606.425 362.312 607.058C362.312 607.902 362.312 608.746 362.312 609.59C362.417 610.434 362.47 611.49 362.47 612.756C362.47 621.619 360.043 628.741 355.19 634.122C350.441 639.503 343.794 642.616 335.248 643.46C333.77 643.355 332.24 642.933 330.658 642.194C329.075 641.455 327.545 640.506 326.068 639.345C324.696 638.184 323.483 636.865 322.428 635.388C321.373 634.017 320.634 632.592 320.212 631.115C320.212 627.106 321.056 623.307 322.744 619.72C324.432 616.027 326.701 612.808 329.55 610.065C332.504 607.216 335.933 604.948 339.837 603.259C343.847 601.466 348.173 600.411 352.816 600.094C352.816 597.456 352.552 594.871 352.024 592.339C351.497 589.807 350.916 587.38 350.283 585.058C349.756 582.632 349.228 580.31 348.701 578.095C348.173 575.773 347.909 573.505 347.909 571.289C347.909 568.44 348.489 565.644 349.65 562.901C350.811 560.052 352.341 557.467 354.24 555.145C356.139 552.719 358.355 550.661 360.887 548.973C363.42 547.285 366.057 546.124 368.801 545.491C369.961 545.807 371.491 546.757 373.391 548.34C375.395 549.817 377.347 551.505 379.247 553.404C381.146 555.304 382.834 557.256 384.311 559.26C385.788 561.16 386.685 562.742 387.002 564.009ZM334.773 636.18C337.305 635.125 339.679 633.595 341.895 631.59C344.216 629.585 346.221 627.317 347.909 624.784C349.597 622.252 350.916 619.561 351.866 616.712C352.921 613.864 353.449 611.067 353.449 608.324C351.338 608.641 349.017 609.643 346.485 611.331C343.952 612.914 341.578 614.866 339.363 617.187C337.147 619.403 335.3 621.724 333.823 624.151C332.346 626.578 331.607 628.688 331.607 630.482C331.607 632.803 332.662 634.702 334.773 636.18Z" fill="#CD1900"/>
</svg>
