<svg width="371" height="353" viewBox="0 0 371 353" fill="none" xmlns="http://www.w3.org/2000/svg">
<path d="M9.05701 80H4.43416V17.0727H9.05701V80ZM42 80H37.3771V32.0733L24.0746 24.0541V80H19.4518V15.9405L37.3771 26.7901V17.0727H42V80ZM50.8712 80V17.0727H55.1167C61.8466 17.0727 67.7902 18.8337 72.9477 22.3559C82.1305 28.6455 86.7219 37.2622 86.7219 48.2061C86.7219 57.0116 83.5771 64.5276 77.2875 70.7543C71.0608 76.9181 63.5448 80 54.7393 80H50.8712ZM55.4941 21.4125V75.2828C61.5321 75.0941 66.7839 73.3016 71.2495 69.9052C78.4825 64.3704 82.099 57.1059 82.099 48.1118C82.099 39.3064 78.514 32.2306 71.3438 26.8844C68.5764 24.8089 66.0606 23.3937 63.7963 22.6389C61.5321 21.8213 58.7647 21.4125 55.4941 21.4125ZM98.3335 80H93.7107V17.0727H98.3335V80ZM127.444 80H122.821V37.1679H112.254V80H107.632V37.1679H105.179L103.669 32.545H107.632V28.7713C107.632 24.4315 108.418 21.3496 109.99 19.5256C111.877 17.3242 114.393 16.2236 117.538 16.2236C122.255 16.2236 125.337 18.2991 126.783 22.4503C127.224 23.7082 127.444 25.6894 127.444 28.3939V80ZM122.821 32.545V26.7901C122.821 22.8276 121.154 20.8464 117.821 20.8464C116.185 20.8464 114.833 21.4125 113.764 22.5446C112.758 23.6767 112.254 25.1233 112.254 26.8844V32.545H122.821ZM158.824 80H154.201V32.0733L140.899 24.0541V80H136.276V15.9405L154.201 26.7901V17.0727H158.824V80ZM191.187 80V17.0727H195.81V31.6016L207.98 17.0727H213.924L200.621 32.6394L216.66 80H211.66L195.81 32.6394V80H191.187ZM225.845 80H221.222V17.0727H225.845V80ZM243.252 80H238.629V21.6955H231.176V17.0727H250.517V21.6955H243.252V80ZM284.268 75.4715V80C274.96 79.6226 267.349 76.2577 261.437 69.9052C255.776 63.8043 252.946 56.6656 252.946 48.4892C252.946 41.6335 255.022 35.4068 259.173 29.8091C263.387 24.1484 268.764 20.3747 275.306 18.4878C277.759 17.7331 280.746 17.2613 284.268 17.0727V21.6012C279.111 21.8527 274.645 23.1107 270.871 25.3749C266.72 27.8908 263.45 31.1928 261.06 35.281C258.733 39.3693 257.569 43.772 257.569 48.4892C257.569 53.2692 258.733 57.7034 261.06 61.7916C263.45 65.8799 266.72 69.1819 270.871 71.6977C274.519 73.8991 278.985 75.157 284.268 75.4715ZM310.628 80H306.005V37.3566H294.495V80H289.872V37.3566H287.514L285.91 32.7337H289.872V17.0727H294.495V32.7337H306.005V17.0727H310.628V80ZM336.224 80H320.092V37.1679H317.733L316.035 32.545H320.092V17.0727H336.224V21.6955H324.715V32.545H335.658L337.357 37.1679H324.715V75.3772H336.224V80ZM365.938 80H361.316V32.0733L348.013 24.0541V80H343.39V15.9405L361.316 26.7901V17.0727H365.938V80Z" fill="white"/>
<path d="M9.05701 80V80.7862H9.84321V80H9.05701ZM4.43416 80H3.64796V80.7862H4.43416V80ZM4.43416 17.0727V16.2865H3.64796V17.0727H4.43416ZM9.05701 17.0727H9.84321V16.2865H9.05701V17.0727ZM9.05701 79.2138H4.43416V80.7862H9.05701V79.2138ZM5.22036 80V17.0727H3.64796V80H5.22036ZM4.43416 17.8589H9.05701V16.2865H4.43416V17.8589ZM8.27081 17.0727V80H9.84321V17.0727H8.27081ZM42 80V80.7862H42.7862V80H42ZM37.3771 80H36.5909V80.7862H37.3771V80ZM37.3771 32.0733H38.1633V31.6293L37.783 31.4L37.3771 32.0733ZM24.0746 24.0541L24.4805 23.3808L23.2884 22.6621V24.0541H24.0746ZM24.0746 80V80.7862H24.8608V80H24.0746ZM19.4518 80H18.6656V80.7862H19.4518V80ZM19.4518 15.9405L19.8589 15.2679L18.6656 14.5457V15.9405H19.4518ZM37.3771 26.7901L36.97 27.4627L38.1633 28.1849V26.7901H37.3771ZM37.3771 17.0727V16.2865H36.5909V17.0727H37.3771ZM42 17.0727H42.7862V16.2865H42V17.0727ZM42 79.2138H37.3771V80.7862H42V79.2138ZM38.1633 80V32.0733H36.5909V80H38.1633ZM37.783 31.4L24.4805 23.3808L23.6687 24.7274L36.9712 32.7466L37.783 31.4ZM23.2884 24.0541V80H24.8608V24.0541H23.2884ZM24.0746 79.2138H19.4518V80.7862H24.0746V79.2138ZM20.238 80V15.9405H18.6656V80H20.238ZM19.0447 16.6131L36.97 27.4627L37.7842 26.1175L19.8589 15.2679L19.0447 16.6131ZM38.1633 26.7901V17.0727H36.5909V26.7901H38.1633ZM37.3771 17.8589H42V16.2865H37.3771V17.8589ZM41.2138 17.0727V80H42.7862V17.0727H41.2138ZM50.8712 80H50.085V80.7862H50.8712V80ZM50.8712 17.0727V16.2865H50.085V17.0727H50.8712ZM72.9477 22.3559L73.392 21.7073L73.3911 21.7067L72.9477 22.3559ZM77.2875 70.7543L77.8406 71.313L77.8406 71.313L77.2875 70.7543ZM55.4941 21.4125V20.6263H54.7079V21.4125H55.4941ZM55.4941 75.2828H54.7079V76.094L55.5186 76.0686L55.4941 75.2828ZM71.2495 69.9052L71.7254 70.531L71.7273 70.5296L71.2495 69.9052ZM71.3438 26.8844L70.8721 27.5134L70.8739 27.5147L71.3438 26.8844ZM63.7963 22.6389L63.5293 23.3784L63.5385 23.3817L63.5477 23.3848L63.7963 22.6389ZM51.6574 80V17.0727H50.085V80H51.6574ZM50.8712 17.8589H55.1167V16.2865H50.8712V17.8589ZM55.1167 17.8589C61.7012 17.8589 67.4877 19.5792 72.5043 23.0052L73.3911 21.7067C68.0927 18.0883 61.9919 16.2865 55.1167 16.2865V17.8589ZM72.5034 23.0046C81.4766 29.1506 85.9357 37.5269 85.9357 48.2061H87.5081C87.5081 36.9976 82.7844 28.1404 73.392 21.7073L72.5034 23.0046ZM85.9357 48.2061C85.9357 56.8005 82.8757 64.1157 76.7344 70.1956L77.8406 71.313C84.2785 64.9395 87.5081 57.2226 87.5081 48.2061H85.9357ZM76.7344 70.1956C70.6557 76.2128 63.3388 79.2138 54.7393 79.2138V80.7862C63.7507 80.7862 71.4659 77.6234 77.8406 71.313L76.7344 70.1956ZM54.7393 79.2138H50.8712V80.7862H54.7393V79.2138ZM54.7079 21.4125V75.2828H56.2803V21.4125H54.7079ZM55.5186 76.0686C61.7068 75.8752 67.1195 74.0341 71.7254 70.531L70.7736 69.2794C66.4483 72.5691 61.3573 74.313 55.4695 74.497L55.5186 76.0686ZM71.7273 70.5296C79.1518 64.8482 82.8852 57.3543 82.8852 48.1118H81.3128C81.3128 56.8575 77.8132 63.8926 70.7717 69.2808L71.7273 70.5296ZM82.8852 48.1118C82.8852 39.0535 79.1792 31.7459 71.8138 26.2541L70.8739 27.5147C77.8487 32.7152 81.3128 39.5592 81.3128 48.1118H82.8852ZM71.8156 26.2555C69.0081 24.1499 66.4166 22.6836 64.045 21.8931L63.5477 23.3848C65.7046 24.1038 68.1447 25.4678 70.8721 27.5134L71.8156 26.2555ZM64.0634 21.8995C61.6889 21.042 58.8252 20.6263 55.4941 20.6263V22.1987C58.7041 22.1987 61.3753 22.6006 63.5293 23.3784L64.0634 21.8995ZM98.3335 80V80.7862H99.1197V80H98.3335ZM93.7107 80H92.9245V80.7862H93.7107V80ZM93.7107 17.0727V16.2865H92.9245V17.0727H93.7107ZM98.3335 17.0727H99.1197V16.2865H98.3335V17.0727ZM98.3335 79.2138H93.7107V80.7862H98.3335V79.2138ZM94.4969 80V17.0727H92.9245V80H94.4969ZM93.7107 17.8589H98.3335V16.2865H93.7107V17.8589ZM97.5473 17.0727V80H99.1197V17.0727H97.5473ZM127.444 80V80.7862H128.23V80H127.444ZM122.821 80H122.035V80.7862H122.821V80ZM122.821 37.1679H123.607V36.3817H122.821V37.1679ZM112.254 37.1679V36.3817H111.468V37.1679H112.254ZM112.254 80V80.7862H113.041V80H112.254ZM107.632 80H106.845V80.7862H107.632V80ZM107.632 37.1679H108.418V36.3817H107.632V37.1679ZM105.179 37.1679L104.431 37.4119L104.608 37.9541H105.179V37.1679ZM103.669 32.545V31.7589H102.585L102.922 32.7891L103.669 32.545ZM107.632 32.545V33.3312H108.418V32.545H107.632ZM109.99 19.5256L110.586 20.0389L110.587 20.0373L109.99 19.5256ZM126.783 22.4503L126.041 22.709L126.041 22.71L126.783 22.4503ZM122.821 32.545V33.3312H123.607V32.545H122.821ZM113.764 22.5446L113.192 22.0048L113.184 22.0134L113.176 22.0223L113.764 22.5446ZM112.254 32.545H111.468V33.3312H112.254V32.545ZM127.444 79.2138H122.821V80.7862H127.444V79.2138ZM123.607 80V37.1679H122.035V80H123.607ZM122.821 36.3817H112.254V37.9541H122.821V36.3817ZM111.468 37.1679V80H113.041V37.1679H111.468ZM112.254 79.2138H107.632V80.7862H112.254V79.2138ZM108.418 80V37.1679H106.845V80H108.418ZM107.632 36.3817H105.179V37.9541H107.632V36.3817ZM105.926 36.9239L104.416 32.301L102.922 32.7891L104.431 37.4119L105.926 36.9239ZM103.669 33.3312H107.632V31.7589H103.669V33.3312ZM108.418 32.545V28.7713H106.845V32.545H108.418ZM108.418 28.7713C108.418 24.4848 109.202 21.6434 110.586 20.0389L109.395 19.0123C107.633 21.0558 106.845 24.3782 106.845 28.7713H108.418ZM110.587 20.0373C112.311 18.0262 114.6 17.0098 117.538 17.0098V15.4374C114.185 15.4374 111.443 16.6223 109.393 19.0139L110.587 20.0373ZM117.538 17.0098C119.782 17.0098 121.568 17.5028 122.948 18.4323C124.323 19.3587 125.363 20.7635 126.041 22.709L127.526 22.1915C126.757 19.9859 125.533 18.2773 123.826 17.1281C122.124 15.9821 120.011 15.4374 117.538 15.4374V17.0098ZM126.041 22.71C126.436 23.8364 126.658 25.7061 126.658 28.3939H128.23C128.23 25.6727 128.012 23.58 127.525 22.1905L126.041 22.71ZM126.658 28.3939V80H128.23V28.3939H126.658ZM123.607 32.545V26.7901H122.035V32.545H123.607ZM123.607 26.7901C123.607 24.7176 123.174 23.0168 122.172 21.8262C121.149 20.6096 119.648 20.0602 117.821 20.0602V21.6326C119.327 21.6326 120.326 22.0739 120.969 22.8385C121.634 23.6291 122.035 24.9001 122.035 26.7901H123.607ZM117.821 20.0602C115.981 20.0602 114.418 20.7068 113.192 22.0048L114.335 23.0844C115.248 22.1182 116.39 21.6326 117.821 21.6326V20.0602ZM113.176 22.0223C112.022 23.3214 111.468 24.964 111.468 26.8844H113.041C113.041 25.2826 113.494 24.0321 114.352 23.0669L113.176 22.0223ZM111.468 26.8844V32.545H113.041V26.8844H111.468ZM112.254 33.3312H122.821V31.7589H112.254V33.3312ZM158.824 80V80.7862H159.61V80H158.824ZM154.201 80H153.415V80.7862H154.201V80ZM154.201 32.0733H154.988V31.6293L154.607 31.4L154.201 32.0733ZM140.899 24.0541L141.305 23.3808L140.113 22.6621V24.0541H140.899ZM140.899 80V80.7862H141.685V80H140.899ZM136.276 80H135.49V80.7862H136.276V80ZM136.276 15.9405L136.683 15.2679L135.49 14.5457V15.9405H136.276ZM154.201 26.7901L153.794 27.4627L154.988 28.1849V26.7901H154.201ZM154.201 17.0727V16.2865H153.415V17.0727H154.201ZM158.824 17.0727H159.61V16.2865H158.824V17.0727ZM158.824 79.2138H154.201V80.7862H158.824V79.2138ZM154.988 80V32.0733H153.415V80H154.988ZM154.607 31.4L141.305 23.3808L140.493 24.7274L153.795 32.7466L154.607 31.4ZM140.113 24.0541V80H141.685V24.0541H140.113ZM140.899 79.2138H136.276V80.7862H140.899V79.2138ZM137.062 80V15.9405H135.49V80H137.062ZM135.869 16.6131L153.794 27.4627L154.608 26.1175L136.683 15.2679L135.869 16.6131ZM154.988 26.7901V17.0727H153.415V26.7901H154.988ZM154.201 17.8589H158.824V16.2865H154.201V17.8589ZM158.038 17.0727V80H159.61V17.0727H158.038ZM191.187 80H190.401V80.7862H191.187V80ZM191.187 17.0727V16.2865H190.401V17.0727H191.187ZM195.81 17.0727H196.596V16.2865H195.81V17.0727ZM195.81 31.6016H195.024V33.7645L196.413 32.1065L195.81 31.6016ZM207.98 17.0727V16.2865H207.613L207.378 16.5678L207.98 17.0727ZM213.924 17.0727L214.522 17.5834L215.63 16.2865H213.924V17.0727ZM200.621 32.6394L200.024 32.1286L199.733 32.4683L199.877 32.8916L200.621 32.6394ZM216.66 80V80.7862H217.756L217.405 79.7478L216.66 80ZM211.66 80L210.914 80.2495L211.094 80.7862H211.66V80ZM195.81 32.6394L196.555 32.3899L195.024 32.6394H195.81ZM195.81 80V80.7862H196.596V80H195.81ZM191.973 80V17.0727H190.401V80H191.973ZM191.187 17.8589H195.81V16.2865H191.187V17.8589ZM195.024 17.0727V31.6016H196.596V17.0727H195.024ZM196.413 32.1065L208.583 17.5775L207.378 16.5678L195.207 31.0968L196.413 32.1065ZM207.98 17.8589H213.924V16.2865H207.98V17.8589ZM213.326 16.5619L200.024 32.1286L201.219 33.1501L214.522 17.5834L213.326 16.5619ZM199.877 32.8916L215.915 80.2522L217.405 79.7478L201.366 32.3872L199.877 32.8916ZM216.66 79.2138H211.66V80.7862H216.66V79.2138ZM212.405 79.7505L196.555 32.3899L195.064 32.8889L210.914 80.2495L212.405 79.7505ZM195.024 32.6394V80H196.596V32.6394H195.024ZM195.81 79.2138H191.187V80.7862H195.81V79.2138ZM225.845 80V80.7862H226.631V80H225.845ZM221.222 80H220.436V80.7862H221.222V80ZM221.222 17.0727V16.2865H220.436V17.0727H221.222ZM225.845 17.0727H226.631V16.2865H225.845V17.0727ZM225.845 79.2138H221.222V80.7862H225.845V79.2138ZM222.008 80V17.0727H220.436V80H222.008ZM221.222 17.8589H225.845V16.2865H221.222V17.8589ZM225.059 17.0727V80H226.631V17.0727H225.059ZM243.252 80V80.7862H244.039V80H243.252ZM238.629 80H237.843V80.7862H238.629V80ZM238.629 21.6955H239.416V20.9093H238.629V21.6955ZM231.176 21.6955H230.39V22.4817H231.176V21.6955ZM231.176 17.0727V16.2865H230.39V17.0727H231.176ZM250.517 17.0727H251.303V16.2865H250.517V17.0727ZM250.517 21.6955V22.4817H251.303V21.6955H250.517ZM243.252 21.6955V20.9093H242.466V21.6955H243.252ZM243.252 79.2138H238.629V80.7862H243.252V79.2138ZM239.416 80V21.6955H237.843V80H239.416ZM238.629 20.9093H231.176V22.4817H238.629V20.9093ZM231.963 21.6955V17.0727H230.39V21.6955H231.963ZM231.176 17.8589H250.517V16.2865H231.176V17.8589ZM249.731 17.0727V21.6955H251.303V17.0727H249.731ZM250.517 20.9093H243.252V22.4817H250.517V20.9093ZM242.466 21.6955V80H244.039V21.6955H242.466ZM284.268 75.4715H285.054V74.7307L284.315 74.6867L284.268 75.4715ZM284.268 80L284.236 80.7856L285.054 80.8187V80H284.268ZM261.437 69.9052L260.861 70.44L260.862 70.4408L261.437 69.9052ZM259.173 29.8091L258.542 29.3396L258.541 29.3408L259.173 29.8091ZM275.306 18.4878L275.524 19.2433L275.537 19.2393L275.306 18.4878ZM284.268 17.0727H285.054V16.2432L284.226 16.2876L284.268 17.0727ZM284.268 21.6012L284.307 22.3864L285.054 22.3499V21.6012H284.268ZM270.871 25.3749L270.467 24.7007L270.464 24.7026L270.871 25.3749ZM261.06 35.281L260.381 34.8842L260.376 34.8921L261.06 35.281ZM261.06 61.7916L260.376 62.1806L260.381 62.1884L261.06 61.7916ZM270.871 71.6977L270.464 72.3701L270.465 72.3709L270.871 71.6977ZM283.482 75.4715V80H285.054V75.4715H283.482ZM284.3 79.2144C275.182 78.8448 267.773 75.5585 262.013 69.3696L260.862 70.4408C266.926 76.9569 274.738 80.4005 284.236 80.7856L284.3 79.2144ZM262.013 69.3705C256.485 63.4121 253.732 56.4634 253.732 48.4892H252.16C252.16 56.8679 255.068 64.1965 260.861 70.44L262.013 69.3705ZM253.732 48.4892C253.732 41.8051 255.752 35.7421 259.804 30.2774L258.541 29.3408C254.292 35.0716 252.16 41.4619 252.16 48.4892H253.732ZM259.803 30.2786C263.919 24.7504 269.154 21.0806 275.524 19.2432L275.088 17.7324C268.375 19.6688 262.855 23.5465 258.542 29.3396L259.803 30.2786ZM275.537 19.2393C277.91 18.509 280.83 18.0442 284.31 17.8577L284.226 16.2876C280.662 16.4785 277.607 16.9572 275.074 17.7364L275.537 19.2393ZM283.482 17.0727V21.6012H285.054V17.0727H283.482ZM284.23 20.8159C278.966 21.0727 274.37 22.3592 270.467 24.7008L271.276 26.0491C274.921 23.8621 279.256 22.6328 284.307 22.3864L284.23 20.8159ZM270.464 24.7026C266.204 27.2845 262.839 30.6801 260.381 34.8842L261.738 35.6778C264.061 31.7055 267.237 28.497 271.279 26.0473L270.464 24.7026ZM260.376 34.8921C257.982 39.0992 256.783 43.636 256.783 48.4892H258.355C258.355 43.9079 259.483 39.6393 261.743 35.67L260.376 34.8921ZM256.783 48.4892C256.783 53.4033 257.981 57.9718 260.376 62.1806L261.743 61.4027C259.484 57.435 258.355 53.1352 258.355 48.4892H256.783ZM260.381 62.1884C262.839 66.3926 266.204 69.7882 270.464 72.3701L271.279 71.0254C267.237 68.5756 264.061 65.3672 261.738 61.3948L260.381 62.1884ZM270.465 72.3709C274.246 74.6521 278.841 75.9361 284.222 76.2563L284.315 74.6867C279.129 74.378 274.793 73.1461 271.278 71.0246L270.465 72.3709ZM310.628 80V80.7862H311.414V80H310.628ZM306.005 80H305.219V80.7862H306.005V80ZM306.005 37.3566H306.791V36.5704H306.005V37.3566ZM294.495 37.3566V36.5704H293.709V37.3566H294.495ZM294.495 80V80.7862H295.281V80H294.495ZM289.872 80H289.086V80.7862H289.872V80ZM289.872 37.3566H290.658V36.5704H289.872V37.3566ZM287.514 37.3566L286.771 37.6143L286.954 38.1428H287.514V37.3566ZM285.91 32.7337V31.9475H284.805L285.167 32.9914L285.91 32.7337ZM289.872 32.7337V33.5199H290.658V32.7337H289.872ZM289.872 17.0727V16.2865H289.086V17.0727H289.872ZM294.495 17.0727H295.281V16.2865H294.495V17.0727ZM294.495 32.7337H293.709V33.5199H294.495V32.7337ZM306.005 32.7337V33.5199H306.791V32.7337H306.005ZM306.005 17.0727V16.2865H305.219V17.0727H306.005ZM310.628 17.0727H311.414V16.2865H310.628V17.0727ZM310.628 79.2138H306.005V80.7862H310.628V79.2138ZM306.791 80V37.3566H305.219V80H306.791ZM306.005 36.5704H294.495V38.1428H306.005V36.5704ZM293.709 37.3566V80H295.281V37.3566H293.709ZM294.495 79.2138H289.872V80.7862H294.495V79.2138ZM290.658 80V37.3566H289.086V80H290.658ZM289.872 36.5704H287.514V38.1428H289.872V36.5704ZM288.256 37.0989L286.652 32.476L285.167 32.9914L286.771 37.6143L288.256 37.0989ZM285.91 33.5199H289.872V31.9475H285.91V33.5199ZM290.658 32.7337V17.0727H289.086V32.7337H290.658ZM289.872 17.8589H294.495V16.2865H289.872V17.8589ZM293.709 17.0727V32.7337H295.281V17.0727H293.709ZM294.495 33.5199H306.005V31.9475H294.495V33.5199ZM306.791 32.7337V17.0727H305.219V32.7337H306.791ZM306.005 17.8589H310.628V16.2865H306.005V17.8589ZM309.842 17.0727V80H311.414V17.0727H309.842ZM336.224 80V80.7862H337.011V80H336.224ZM320.092 80H319.305V80.7862H320.092V80ZM320.092 37.1679H320.878V36.3817H320.092V37.1679ZM317.733 37.1679L316.995 37.439L317.184 37.9541H317.733V37.1679ZM316.035 32.545V31.7589H314.909L315.297 32.8161L316.035 32.545ZM320.092 32.545V33.3312H320.878V32.545H320.092ZM320.092 17.0727V16.2865H319.305V17.0727H320.092ZM336.224 17.0727H337.011V16.2865H336.224V17.0727ZM336.224 21.6955V22.4817H337.011V21.6955H336.224ZM324.715 21.6955V20.9093H323.928V21.6955H324.715ZM324.715 32.545H323.928V33.3312H324.715V32.545ZM335.658 32.545L336.396 32.274L336.207 31.7589H335.658V32.545ZM337.357 37.1679V37.9541H338.483L338.095 36.8968L337.357 37.1679ZM324.715 37.1679V36.3817H323.928V37.1679H324.715ZM324.715 75.3772H323.928V76.1634H324.715V75.3772ZM336.224 75.3772H337.011V74.591H336.224V75.3772ZM336.224 79.2138H320.092V80.7862H336.224V79.2138ZM320.878 80V37.1679H319.305V80H320.878ZM320.092 36.3817H317.733V37.9541H320.092V36.3817ZM318.471 36.8968L316.773 32.274L315.297 32.8161L316.995 37.439L318.471 36.8968ZM316.035 33.3312H320.092V31.7589H316.035V33.3312ZM320.878 32.545V17.0727H319.305V32.545H320.878ZM320.092 17.8589H336.224V16.2865H320.092V17.8589ZM335.438 17.0727V21.6955H337.011V17.0727H335.438ZM336.224 20.9093H324.715V22.4817H336.224V20.9093ZM323.928 21.6955V32.545H325.501V21.6955H323.928ZM324.715 33.3312H335.658V31.7589H324.715V33.3312ZM334.92 32.8161L336.619 37.439L338.095 36.8968L336.396 32.274L334.92 32.8161ZM337.357 36.3817H324.715V37.9541H337.357V36.3817ZM323.928 37.1679V75.3772H325.501V37.1679H323.928ZM324.715 76.1634H336.224V74.591H324.715V76.1634ZM335.438 75.3772V80H337.011V75.3772H335.438ZM365.938 80V80.7862H366.725V80H365.938ZM361.316 80H360.529V80.7862H361.316V80ZM361.316 32.0733H362.102V31.6293L361.721 31.4L361.316 32.0733ZM348.013 24.0541L348.419 23.3808L347.227 22.6621V24.0541H348.013ZM348.013 80V80.7862H348.799V80H348.013ZM343.39 80H342.604V80.7862H343.39V80ZM343.39 15.9405L343.797 15.2679L342.604 14.5457V15.9405H343.39ZM361.316 26.7901L360.908 27.4627L362.102 28.1849V26.7901H361.316ZM361.316 17.0727V16.2865H360.529V17.0727H361.316ZM365.938 17.0727H366.725V16.2865H365.938V17.0727ZM365.938 79.2138H361.316V80.7862H365.938V79.2138ZM362.102 80V32.0733H360.529V80H362.102ZM361.721 31.4L348.419 23.3808L347.607 24.7274L360.91 32.7466L361.721 31.4ZM347.227 24.0541V80H348.799V24.0541H347.227ZM348.013 79.2138H343.39V80.7862H348.013V79.2138ZM344.176 80V15.9405H342.604V80H344.176ZM342.983 16.6131L360.908 27.4627L361.723 26.1175L343.797 15.2679L342.983 16.6131ZM362.102 26.7901V17.0727H360.529V26.7901H362.102ZM361.316 17.8589H365.938V16.2865H361.316V17.8589ZM365.152 17.0727V80H366.725V17.0727H365.152Z" fill="white"/>
<path d="M90.9508 195.07V325C73.4536 323.094 59.7676 319.37 49.893 313.826C36.2071 306.204 25.293 295.549 17.1507 281.863C9.00846 268.177 4.93733 253.539 4.93733 237.947C4.93733 221.316 9.35494 206.071 18.1902 192.212C27.1986 178.179 39.2388 167.439 54.3106 159.989C64.3585 155.139 76.5719 152.367 90.9508 151.674V164.147C75.186 165.533 61.6733 169.951 50.4127 177.4C28.5845 191.952 17.6704 212.221 17.6704 238.207C17.6704 256.224 23.1275 271.815 34.0416 284.982C45.1289 297.975 59.8543 306.463 78.2177 310.448V195.07H90.9508ZM194.03 149.335C219.323 149.335 240.631 158.084 257.955 175.581C275.279 193.078 283.941 214.646 283.941 240.286C283.941 263.846 275.106 284.289 257.435 301.613C239.938 318.763 219.063 327.339 194.809 327.339C170.382 327.339 149.42 318.677 131.923 301.353C114.599 283.856 105.937 262.894 105.937 238.467C105.937 214.04 114.599 193.078 131.923 175.581C149.247 158.084 169.949 149.335 194.03 149.335ZM194.29 162.068C173.501 162.068 155.657 169.604 140.758 184.676C126.033 199.575 118.67 217.505 118.67 238.467C118.67 259.429 126.12 277.359 141.018 292.258C155.917 307.156 173.847 314.606 194.809 314.606C215.598 314.606 233.528 307.243 248.6 292.518C263.672 277.792 271.208 260.295 271.208 240.026C271.208 218.198 263.759 199.748 248.86 184.676C233.961 169.604 215.771 162.068 194.29 162.068ZM356.612 325H343.879V207.024H314.775V325H302.042V207.024H295.285L291.128 194.291H302.042V183.896C302.042 171.943 304.207 163.454 308.538 158.43C313.735 152.367 320.665 149.335 329.327 149.335C342.32 149.335 350.809 155.052 354.793 166.486C356.006 169.951 356.612 175.408 356.612 182.857V325ZM343.879 194.291V178.439C343.879 167.525 339.288 162.068 330.107 162.068C325.602 162.068 321.878 163.627 318.933 166.746C316.161 169.864 314.775 173.848 314.775 178.699V194.291H343.879Z" fill="white"/>
<path d="M90.9508 195.07H91.737V194.284H90.9508V195.07ZM90.9508 325L90.8656 325.782L91.737 325.876V325H90.9508ZM49.893 313.826L50.2779 313.14L50.2755 313.139L49.893 313.826ZM17.1507 281.863L16.4751 282.265L16.4751 282.265L17.1507 281.863ZM18.1902 192.212L17.5286 191.787L17.5272 191.789L18.1902 192.212ZM54.3106 159.989L53.9688 159.281L53.9622 159.285L54.3106 159.989ZM90.9508 151.674H91.737V150.849L90.9129 150.889L90.9508 151.674ZM90.9508 164.147L91.0196 164.93L91.737 164.867V164.147H90.9508ZM50.4127 177.4L49.9789 176.744L49.9766 176.746L50.4127 177.4ZM34.0416 284.982L33.4362 285.483L33.4435 285.492L34.0416 284.982ZM78.2177 310.448L78.051 311.216L79.0039 311.423V310.448H78.2177ZM78.2177 195.07V194.284H77.4315V195.07H78.2177ZM90.1646 195.07V325H91.737V195.07H90.1646ZM91.0359 324.218C73.5918 322.319 60.0233 318.612 50.2779 313.14L49.5081 314.512C59.512 320.128 73.3153 323.87 90.8656 325.782L91.0359 324.218ZM50.2755 313.139C36.7128 305.585 25.899 295.03 17.8264 281.461L16.4751 282.265C24.687 296.068 35.7013 306.822 49.5104 314.513L50.2755 313.139ZM17.8264 281.461C9.75484 267.894 5.72353 253.394 5.72353 237.947H4.15113C4.15113 253.683 8.26207 268.461 16.4751 282.265L17.8264 281.461ZM5.72353 237.947C5.72353 221.464 10.0994 206.366 18.8531 192.635L17.5272 191.789C8.61049 205.776 4.15113 221.168 4.15113 237.947H5.72353ZM18.8518 192.637C27.7825 178.725 39.7139 168.081 54.659 160.694L53.9622 159.285C38.7636 166.796 26.6147 177.634 17.5286 191.787L18.8518 192.637ZM54.6524 160.697C64.5819 155.904 76.6859 153.148 90.9886 152.459L90.9129 150.889C76.4579 151.585 64.1351 154.373 53.9688 159.281L54.6524 160.697ZM90.1646 151.674V164.147H91.737V151.674H90.1646ZM90.8819 163.364C75.0093 164.759 61.366 169.211 49.9789 176.744L50.8465 178.056C61.9805 170.69 75.3627 166.307 91.0196 164.93L90.8819 163.364ZM49.9766 176.746C27.9322 191.442 16.8842 211.955 16.8842 238.207H18.4566C18.4566 212.487 29.2368 192.462 50.8488 178.054L49.9766 176.746ZM16.8842 238.207C16.8842 256.397 22.3987 272.168 33.4363 285.483L34.6469 284.48C23.8563 271.463 18.4566 256.051 18.4566 238.207H16.8842ZM33.4435 285.492C44.6538 298.629 59.5372 307.199 78.051 311.216L78.3844 309.68C60.1713 305.728 45.604 297.32 34.6396 284.471L33.4435 285.492ZM79.0039 310.448V195.07H77.4315V310.448H79.0039ZM78.2177 195.857H90.9508V194.284H78.2177V195.857ZM257.435 301.613L257.986 302.174L257.986 302.174L257.435 301.613ZM131.923 301.353L131.365 301.906L131.37 301.911L131.923 301.353ZM131.923 175.581L131.365 175.028L131.365 175.028L131.923 175.581ZM140.758 184.676L140.199 184.123L140.199 184.123L140.758 184.676ZM141.018 292.258L141.574 291.702L141.574 291.702L141.018 292.258ZM248.6 292.518L248.051 291.955L248.051 291.955L248.6 292.518ZM248.86 184.676L248.301 185.229L248.301 185.229L248.86 184.676ZM194.03 150.121C219.119 150.121 240.225 158.79 257.396 176.134L258.514 175.028C241.038 157.377 219.526 148.549 194.03 148.549V150.121ZM257.396 176.134C274.568 193.477 283.155 214.844 283.155 240.286H284.727C284.727 214.449 275.99 192.679 258.514 175.028L257.396 176.134ZM283.155 240.286C283.155 263.624 274.413 283.867 256.885 301.051L257.986 302.174C275.799 284.711 284.727 264.069 284.727 240.286H283.155ZM256.885 301.051C239.533 318.06 218.855 326.553 194.809 326.553V328.125C219.271 328.125 240.343 319.467 257.986 302.174L256.885 301.051ZM194.809 326.553C170.591 326.553 149.828 317.974 132.476 300.794L131.37 301.911C149.013 319.38 170.173 328.125 194.809 328.125V326.553ZM132.482 300.8C115.302 283.448 106.724 262.685 106.724 238.467H105.151C105.151 263.103 113.896 284.263 131.365 301.906L132.482 300.8ZM106.724 238.467C106.724 214.249 115.302 193.485 132.482 176.134L131.365 175.028C113.896 192.671 105.151 213.831 105.151 238.467H106.724ZM132.482 176.134C149.662 158.782 170.164 150.121 194.03 150.121V148.549C169.734 148.549 148.832 157.385 131.365 175.028L132.482 176.134ZM194.29 161.282C173.286 161.282 155.242 168.905 140.199 184.123L141.318 185.229C156.072 170.303 173.715 162.854 194.29 162.854V161.282ZM140.199 184.123C125.328 199.169 117.884 217.298 117.884 238.467H119.457C119.457 217.712 126.738 199.98 141.318 185.229L140.199 184.123ZM117.884 238.467C117.884 259.639 125.417 277.768 140.462 292.814L141.574 291.702C126.822 276.95 119.457 259.219 119.457 238.467H117.884ZM140.462 292.814C155.508 307.859 173.638 315.392 194.809 315.392V313.819C174.057 313.819 156.326 306.454 141.574 291.702L140.462 292.814ZM194.809 315.392C215.806 315.392 233.933 307.947 249.15 293.08L248.051 291.955C233.123 306.539 215.39 313.819 194.809 313.819V315.392ZM249.15 293.08C264.366 278.213 271.994 260.516 271.994 240.026H270.422C270.422 260.074 262.978 277.371 248.051 291.955L249.15 293.08ZM271.994 240.026C271.994 217.998 264.468 199.347 249.419 184.123L248.301 185.229C263.049 200.148 270.422 218.398 270.422 240.026H271.994ZM249.419 184.123C234.371 168.9 215.978 161.282 194.29 161.282V162.854C215.564 162.854 233.552 170.309 248.301 185.229L249.419 184.123ZM356.612 325V325.786H357.398V325H356.612ZM343.879 325H343.093V325.786H343.879V325ZM343.879 207.024H344.665V206.238H343.879V207.024ZM314.775 207.024V206.238H313.989V207.024H314.775ZM314.775 325V325.786H315.561V325H314.775ZM302.042 325H301.256V325.786H302.042V325ZM302.042 207.024H302.828V206.238H302.042V207.024ZM295.285 207.024L294.538 207.268L294.715 207.81H295.285V207.024ZM291.128 194.291V193.505H290.044L290.38 194.535L291.128 194.291ZM302.042 194.291V195.077H302.828V194.291H302.042ZM308.538 158.43L309.134 158.944L309.135 158.942L308.538 158.43ZM354.793 166.486L354.051 166.745L354.051 166.746L354.793 166.486ZM343.879 194.291V195.077H344.665V194.291H343.879ZM318.933 166.746L318.361 166.206L318.353 166.214L318.345 166.223L318.933 166.746ZM314.775 194.291H313.989V195.077H314.775V194.291ZM356.612 324.214H343.879V325.786H356.612V324.214ZM344.665 325V207.024H343.093V325H344.665ZM343.879 206.238H314.775V207.81H343.879V206.238ZM313.989 207.024V325H315.561V207.024H313.989ZM314.775 324.214H302.042V325.786H314.775V324.214ZM302.828 325V207.024H301.256V325H302.828ZM302.042 206.238H295.285V207.81H302.042V206.238ZM296.033 206.78L291.875 194.047L290.38 194.535L294.538 207.268L296.033 206.78ZM291.128 195.077H302.042V193.505H291.128V195.077ZM302.828 194.291V183.896H301.256V194.291H302.828ZM302.828 183.896C302.828 171.996 304.992 163.748 309.134 158.944L307.943 157.917C303.423 163.16 301.256 171.89 301.256 183.896H302.828ZM309.135 158.942C314.169 153.069 320.873 150.121 329.327 150.121V148.549C320.458 148.549 313.302 151.665 307.941 157.919L309.135 158.942ZM329.327 150.121C335.709 150.121 340.916 151.525 344.999 154.275C349.078 157.022 352.104 161.158 354.051 166.745L355.536 166.227C353.498 160.38 350.287 155.941 345.877 152.971C341.472 150.004 335.938 148.549 329.327 148.549V150.121ZM354.051 166.746C355.218 170.079 355.826 175.424 355.826 182.857H357.398C357.398 175.391 356.794 169.822 355.535 166.226L354.051 166.746ZM355.826 182.857V325H357.398V182.857H355.826ZM344.665 194.291V178.439H343.093V194.291H344.665ZM344.665 178.439C344.665 172.891 343.501 168.583 341.038 165.655C338.552 162.7 334.858 161.282 330.107 161.282V162.854C334.537 162.854 337.729 164.165 339.834 166.667C341.962 169.196 343.093 173.074 343.093 178.439H344.665ZM330.107 161.282C325.398 161.282 321.463 162.922 318.361 166.206L319.504 167.285C322.293 164.333 325.807 162.854 330.107 162.854V161.282ZM318.345 166.223C315.425 169.509 313.989 173.689 313.989 178.699H315.561C315.561 174.008 316.897 170.219 319.52 167.268L318.345 166.223ZM313.989 178.699V194.291H315.561V178.699H313.989ZM314.775 195.077H343.879V193.505H314.775V195.077Z" fill="white"/>
</svg>
